# Blender v2.82 (sub 7) OBJ File: 'models.blend'
# www.blender.org
mtllib bathtub.mtl
o bathtub_Cube.009
v -0.320280 0.249580 0.361848
v -0.320280 0.249580 -0.361847
v 1.320280 0.249580 0.361847
v 1.320280 0.249580 -0.361848
v -0.158130 -0.331346 0.290319
v -0.158130 -0.331346 -0.290319
v 1.158130 -0.331346 -0.290319
v 1.158130 -0.331346 0.290319
v -0.153880 -0.497800 0.300423
v -0.169956 -0.445676 0.363243
v -0.225557 -0.448151 0.308931
v -0.153880 -0.497800 -0.300423
v -0.225557 -0.448151 -0.308931
v -0.169956 -0.445676 -0.363243
v 1.153880 -0.497800 0.300423
v 1.225557 -0.448151 0.308931
v 1.169956 -0.445676 0.363243
v 1.153880 -0.497800 -0.300423
v 1.169956 -0.445676 -0.363243
v 1.225557 -0.448151 -0.308931
v -0.419497 0.218889 0.488014
v -0.442566 0.271012 0.444766
v -0.476957 0.221363 0.434631
v -0.442566 0.271012 -0.444766
v -0.419497 0.218889 -0.488014
v -0.476957 0.221363 -0.434631
v 1.442566 0.271012 -0.444766
v 1.476957 0.221363 -0.434631
v 1.419497 0.218889 -0.488014
v 1.442566 0.271012 0.444766
v 1.419497 0.218889 0.488014
v 1.476957 0.221363 0.434631
v 0.027720 -0.350918 -0.026840
v 0.027720 -0.309479 -0.026840
v 0.027720 -0.350918 -0.163442
v 0.027720 -0.309479 -0.163442
v 0.164321 -0.350918 -0.026840
v 0.164321 -0.309479 -0.026840
v 0.164321 -0.350918 -0.163442
v 0.164321 -0.309479 -0.163442
v -0.124561 0.260825 0.157125
v -0.124561 0.139047 0.157125
v -0.124561 0.260825 -0.178957
v -0.124561 0.139047 -0.178957
v -0.261163 0.260825 0.157125
v -0.261163 0.139047 0.157125
v -0.261163 0.260825 -0.178957
v -0.261163 0.139047 -0.178957
v -0.124561 0.260825 -0.066930
v -0.124561 0.260825 0.045098
v -0.124561 0.139047 0.045098
v -0.124561 0.139047 -0.066930
v -0.261163 0.260825 0.045098
v -0.261163 0.260825 -0.066930
v -0.261163 0.139047 -0.066930
v -0.261163 0.139047 0.045098
v -0.261163 0.165027 -0.152978
v -0.261163 0.234845 -0.152978
v -0.261163 0.234845 -0.092909
v -0.261163 0.165027 0.071077
v -0.261163 0.165027 0.131146
v -0.261163 0.234845 0.131146
v -0.261163 0.234845 0.071077
v -0.261163 0.165027 -0.092909
v -0.261163 0.139047 -0.178957
v -0.261163 0.260825 -0.178957
v -0.261163 0.260825 -0.066930
v -0.261163 0.139047 0.045098
v -0.261163 0.139047 0.157125
v -0.261163 0.260825 0.157125
v -0.261163 0.260825 0.045098
v -0.261163 0.139047 -0.066930
v -0.356579 0.165027 -0.152978
v -0.356579 0.234845 -0.152978
v -0.356579 0.234845 -0.092909
v -0.356579 0.165027 0.071077
v -0.356579 0.165027 0.131146
v -0.356579 0.234845 0.131146
v -0.356579 0.234845 0.071077
v -0.356579 0.165027 -0.092909
v -0.147901 0.260825 -0.043591
v -0.147901 0.260825 0.021759
v -0.237824 0.260825 0.021759
v -0.237824 0.260825 -0.043591
v -0.124561 0.260825 -0.066930
v -0.124561 0.260825 0.045098
v -0.261163 0.260825 0.045098
v -0.261163 0.260825 -0.066930
v -0.147901 0.535535 -0.043591
v -0.147901 0.535535 0.021759
v -0.237824 0.535535 0.021759
v -0.237824 0.535535 -0.043591
v -0.237824 0.473450 -0.043591
v -0.147901 0.473450 -0.043591
v -0.147901 0.473450 0.021759
v -0.237824 0.473450 0.021759
v 0.039636 0.522457 -0.033817
v 0.039636 0.522457 0.031532
v 0.061596 0.473450 -0.043591
v 0.061596 0.473450 0.021759
v -0.001650 0.535535 -0.043591
v -0.001650 0.473450 -0.043591
v -0.001650 0.473450 0.021759
v -0.001650 0.535535 0.021759
v 0.529146 0.106764 -0.313767
v 0.529146 0.106764 -0.358932
v 0.061596 0.473450 -0.043591
v 0.061596 0.473450 0.021759
v -0.001650 0.473450 -0.043591
v -0.001650 0.473450 0.021759
v 0.498140 0.925030 -0.487024
v 0.498140 0.925030 -0.421675
v 0.434894 0.925030 -0.487024
v 0.434894 0.925030 -0.421675
v 0.049778 0.473450 -0.031772
v 0.049778 0.473450 0.009940
v 0.010169 0.473450 -0.031772
v 0.010169 0.473450 0.009940
v 0.049778 0.429865 -0.031772
v 0.049778 0.429865 0.009940
v 0.010169 0.429865 -0.031772
v 0.010169 0.429865 0.009940
v 0.587069 0.073322 -0.358932
v 0.587069 0.073322 -0.313767
v 0.587069 0.006438 -0.358932
v 0.587069 0.006438 -0.313767
v 0.529146 -0.027004 -0.358932
v 0.529146 -0.027004 -0.313767
v 0.471222 0.006438 -0.358932
v 0.471222 0.006438 -0.313767
v 0.471222 0.073322 -0.358932
v 0.471222 0.073322 -0.313767
vt 0.183760 0.941203
vt 0.183760 0.941203
vt 0.183760 0.941203
vt 0.183760 0.941203
vt 0.183760 0.941203
vt 0.183760 0.941203
vt 0.183760 0.941203
vt 0.183760 0.941203
vt 0.183760 0.941203
vt 0.183760 0.941203
vt 0.183760 0.941203
vt 0.183760 0.941203
vt 0.183760 0.941203
vt 0.183760 0.941203
vt 0.183760 0.941203
vt 0.183760 0.941203
vt 0.183760 0.941203
vt 0.183760 0.941203
vt 0.183760 0.941203
vt 0.183760 0.941203
vt 0.183760 0.941203
vt 0.183760 0.941203
vt 0.183760 0.941203
vt 0.183760 0.941203
vt 0.183760 0.941203
vt 0.183760 0.941203
vt 0.183760 0.941203
vt 0.183760 0.941203
vt 0.183760 0.941203
vt 0.183760 0.941203
vt 0.183760 0.941203
vt 0.183760 0.941203
vt 0.710827 0.927854
vt 0.710827 0.927854
vt 0.710827 0.927854
vt 0.710827 0.927854
vt 0.710827 0.927854
vt 0.710827 0.927854
vt 0.710827 0.927854
vt 0.710827 0.927854
vt 0.676722 0.918553
vt 0.676722 0.918553
vt 0.676722 0.918553
vt 0.676722 0.918553
vt 0.676722 0.918553
vt 0.676722 0.918553
vt 0.676722 0.918553
vt 0.676722 0.918553
vt 0.676722 0.918553
vt 0.676722 0.918553
vt 0.676722 0.918553
vt 0.676722 0.918553
vt 0.676722 0.918553
vt 0.676722 0.918553
vt 0.676722 0.918553
vt 0.676722 0.918553
vt 0.676722 0.918553
vt 0.676722 0.918553
vt 0.676722 0.918553
vt 0.676722 0.918553
vt 0.676722 0.918553
vt 0.676722 0.918553
vt 0.676722 0.918553
vt 0.676722 0.918553
vt 0.676722 0.918553
vt 0.676722 0.918553
vt 0.676722 0.918553
vt 0.676722 0.918553
vt 0.676722 0.918553
vt 0.676722 0.918553
vt 0.676722 0.918553
vt 0.676722 0.918553
vt 0.676722 0.918553
vt 0.676722 0.918553
vt 0.676722 0.918553
vt 0.676722 0.918553
vt 0.676722 0.918553
vt 0.676722 0.918553
vt 0.676722 0.918553
vt 0.676722 0.918553
vt 0.676722 0.918553
vt 0.676722 0.918553
vt 0.676722 0.918553
vt 0.676722 0.918553
vt 0.676722 0.918553
vt 0.676722 0.918553
vt 0.676722 0.918553
vt 0.676722 0.918553
vt 0.676722 0.918553
vt 0.676722 0.918553
vt 0.676722 0.918553
vt 0.676722 0.918553
vt 0.676722 0.918553
vt 0.676722 0.918553
vt 0.676722 0.918553
vt 0.676722 0.918553
vt 0.676722 0.918553
vt 0.676722 0.918553
vt 0.676722 0.918553
vt 0.676722 0.918553
vt 0.676722 0.918553
vt 0.676722 0.918553
vt 0.676722 0.918553
vt 0.676722 0.918553
vt 0.676722 0.918553
vt 0.676722 0.918553
vt 0.450394 0.841043
vt 0.450394 0.841043
vt 0.450394 0.841043
vt 0.676722 0.951456
vt 0.676722 0.951456
vt 0.676722 0.951456
vt 0.676722 0.918553
vt 0.676722 0.918553
vt 0.676722 0.918553
vt 0.676722 0.918553
vt 0.450394 0.841043
vt 0.450394 0.841043
vt 0.450394 0.841043
vt 0.450394 0.841043
vt 0.450394 0.841043
vt 0.676722 0.918553
vt 0.676722 0.951456
vt 0.676722 0.951456
vt 0.676722 0.918553
vt 0.676722 0.951456
vt 0.676722 0.951456
vt 0.676722 0.951456
vt 0.676722 0.951456
vt 0.676722 0.951456
vt 0.676722 0.951456
vt 0.676722 0.951456
vn 0.0000 -0.1845 0.9828
vn 0.9362 -0.3515 0.0000
vn 0.1726 0.9850 0.0000
vn -0.0000 -0.1845 -0.9828
vn -0.9362 -0.3515 0.0000
vn -0.0000 0.1222 -0.9925
vn -0.0000 0.9682 -0.2503
vn -0.1726 0.9850 0.0000
vn 0.0000 0.9682 0.2503
vn 0.0000 1.0000 0.0000
vn 0.0000 0.1222 0.9925
vn -0.9632 0.2688 0.0000
vn 0.9632 0.2688 0.0000
vn -0.4532 -0.7396 0.4977
vn -0.4532 -0.7396 -0.4977
vn 0.4532 -0.7396 0.4977
vn 0.4532 -0.7396 -0.4977
vn -0.6421 0.3009 0.7051
vn -0.6421 0.3009 -0.7051
vn 0.6421 0.3009 -0.7051
vn 0.6421 0.3009 0.7051
vn -0.5694 -0.8220 0.0000
vn -0.6415 -0.3673 0.6735
vn -0.8220 0.5694 0.0000
vn -0.6415 -0.3673 -0.6735
vn 0.0000 -0.7696 -0.6385
vn 0.0000 0.6385 -0.7696
vn 0.6415 -0.3673 -0.6735
vn 0.5694 -0.8220 0.0000
vn 0.8220 0.5694 0.0000
vn 0.6415 -0.3673 0.6735
vn 0.0000 -0.7696 0.6385
vn 0.0000 0.6385 0.7696
vn 0.0000 -1.0000 0.0000
vn -1.0000 0.0000 -0.0000
vn 0.0000 0.0000 -1.0000
vn 1.0000 0.0000 -0.0000
vn 0.0000 0.0000 1.0000
vn -0.9698 0.1644 0.1804
vn -0.9673 0.2246 0.1182
vn 0.0911 0.2246 -0.9702
vn -0.8526 0.1974 0.4839
vn 0.5219 0.2246 -0.8229
vn -0.8642 0.1644 -0.4755
vn -0.9702 0.2246 -0.0911
vn 0.0000 0.0000 0.0000
vn 0.0000 0.1956 -0.9807
vn 0.9126 0.4089 0.0000
vn -0.2304 0.0000 0.9731
vn 0.3020 0.9533 0.0000
vn 0.5000 0.8660 0.0000
vn 0.5000 -0.8660 -0.0000
vn -0.5000 -0.8660 -0.0000
vn -0.5000 0.8660 0.0000
vn -0.5948 0.1644 0.7869
vn -0.9811 0.1791 -0.0727
vn -0.7450 0.2246 -0.6281
vn -0.4028 0.1644 -0.9004
vn -0.1777 0.2246 -0.9581
vn -0.9004 0.1644 0.4028
vn -0.2313 0.1644 -0.9589
vn 0.2304 0.0000 -0.9731
vn 0.0000 -0.1956 0.9807
usemtl Material.012
s off
f 31/1/1 10/2/1 17/3/1
f 28/4/2 16/5/2 20/6/2
f 2/7/3 22/8/3 1/9/3
f 25/10/4 19/11/4 14/12/4
f 23/13/5 13/14/5 11/15/5
f 3/16/6 5/17/6 1/9/6
f 1/9/7 30/18/7 3/16/7
f 3/16/8 27/19/8 4/20/8
f 4/20/9 24/21/9 2/7/9
f 6/22/10 8/23/10 7/24/10
f 2/7/11 7/24/11 4/20/11
f 3/16/12 7/24/12 8/23/12
f 2/7/13 5/17/13 6/22/13
f 9/25/14 10/2/14 11/15/14
f 12/26/15 13/14/15 14/12/15
f 15/27/16 16/5/16 17/3/16
f 18/28/17 19/11/17 20/6/17
f 21/29/18 22/8/18 23/13/18
f 24/21/19 25/10/19 26/30/19
f 27/19/20 28/4/20 29/31/20
f 30/18/21 31/1/21 32/32/21
f 9/25/22 13/14/22 12/26/22
f 21/29/23 11/15/23 10/2/23
f 24/21/24 23/13/24 22/8/24
f 25/10/25 13/14/25 26/30/25
f 12/26/26 19/11/26 18/28/26
f 27/19/27 25/10/27 24/21/27
f 20/6/28 29/31/28 28/4/28
f 18/28/29 16/5/29 15/27/29
f 30/18/30 28/4/30 27/19/30
f 31/1/31 16/5/31 32/32/31
f 15/27/32 10/2/32 9/25/32
f 22/8/33 31/1/33 30/18/33
f 18/28/34 9/25/34 12/26/34
f 34/33/35 35/34/35 33/35/35
f 36/36/36 39/37/36 35/34/36
f 40/38/37 37/39/37 39/37/37
f 38/40/38 33/35/38 37/39/38
f 39/37/34 33/35/34 35/34/34
f 36/36/10 38/40/10 40/38/10
f 52/41/37 43/42/37 49/43/37
f 44/44/36 47/45/36 43/42/36
f 46/46/38 70/47/38 69/48/38
f 46/46/38 41/49/38 45/50/38
f 53/51/10 41/49/10 50/52/10
f 51/53/39 46/46/40 56/54/41
f 44/44/39 55/55/40 48/56/42
f 55/55/43 51/53/44 56/54/45
f 47/45/10 49/43/10 43/42/10
f 50/52/46 85/57/46 86/58/46
f 55/55/38 67/59/38 72/60/38
f 55/55/35 53/51/35 54/61/35
f 42/62/37 50/52/37 41/49/37
f 51/53/37 49/43/37 50/52/37
f 57/63/36 74/64/36 58/65/36
f 61/66/34 76/67/34 60/68/34
f 48/56/46 72/60/46 65/69/46
f 54/61/46 66/70/46 67/59/46
f 45/50/46 71/71/46 70/47/46
f 53/51/38 68/72/38 71/71/38
f 56/54/46 69/48/46 68/72/46
f 47/45/38 65/69/38 66/70/38
f 58/65/35 65/69/35 57/63/35
f 59/73/35 66/70/35 58/65/35
f 60/68/35 69/48/35 61/66/35
f 61/66/35 70/47/35 62/74/35
f 62/74/35 71/71/35 63/75/35
f 57/63/35 72/60/35 64/76/35
f 64/76/35 67/59/35 59/73/35
f 63/75/35 68/72/35 60/68/35
f 76/67/35 78/77/35 79/78/35
f 73/79/35 75/80/35 74/64/35
f 60/68/36 79/78/36 63/75/36
f 64/76/34 73/79/34 57/63/34
f 62/74/38 77/81/38 61/66/38
f 58/65/10 75/80/10 59/73/10
f 59/73/38 80/82/38 64/76/38
f 63/75/10 78/77/10 62/74/10
f 93/83/36 89/84/36 94/85/36
f 49/43/38 88/86/38 85/57/38
f 53/51/38 86/58/38 87/87/38
f 54/61/46 87/87/46 88/86/46
f 82/88/10 85/57/10 81/89/10
f 84/90/10 87/87/10 83/91/10
f 81/89/10 88/86/10 84/90/10
f 82/88/10 87/87/10 86/58/10
f 89/84/10 91/92/10 90/93/10
f 102/94/47 97/95/47 99/96/47
f 95/97/38 91/92/38 96/98/38
f 96/98/35 92/99/35 93/83/35
f 83/91/35 93/83/35 84/90/35
f 82/88/38 96/98/38 83/91/38
f 81/89/37 95/97/37 82/88/37
f 84/90/36 94/85/36 81/89/36
f 100/100/48 97/95/48 98/101/48
f 99/96/46 108/102/46 107/103/46
f 103/104/49 98/101/49 104/105/49
f 104/105/50 97/95/50 101/106/50
f 90/93/10 101/106/10 89/84/10
f 95/97/38 104/105/38 90/93/38
f 94/85/34 103/104/34 95/97/34
f 89/84/36 102/94/36 94/85/36
f 120/107/34 121/108/34 119/109/34
f 105/110/51 123/111/51 106/112/51
f 102/94/38 107/103/38 109/113/38
f 110/114/34 116/115/34 108/102/34
f 107/103/34 117/116/34 109/113/34
f 103/104/46 109/113/46 110/114/46
f 100/100/38 110/114/38 108/102/38
f 115/117/36 121/108/36 117/118/36
f 116/119/37 119/109/37 115/117/37
f 117/118/35 122/120/35 118/121/35
f 118/121/38 120/107/38 116/119/38
f 108/102/34 115/122/34 107/103/34
f 124/123/37 125/124/37 123/111/37
f 110/114/34 117/116/34 118/125/34
f 126/126/52 127/127/52 125/124/52
f 128/128/53 129/129/53 127/127/53
f 105/110/38 132/130/38 130/131/38
f 129/129/35 132/130/35 131/132/35
f 131/132/54 105/110/54 106/112/54
f 106/112/36 123/111/36 127/127/36
f 31/1/1 21/29/1 10/2/1
f 28/4/2 32/32/2 16/5/2
f 2/7/3 24/21/3 22/8/3
f 25/10/4 29/31/4 19/11/4
f 23/13/5 26/30/5 13/14/5
f 3/16/6 8/23/6 5/17/6
f 1/9/7 22/8/7 30/18/7
f 3/16/8 30/18/8 27/19/8
f 4/20/9 27/19/9 24/21/9
f 6/22/10 5/17/10 8/23/10
f 2/7/11 6/22/11 7/24/11
f 3/16/12 4/20/12 7/24/12
f 2/7/13 1/9/13 5/17/13
f 9/25/22 11/15/22 13/14/22
f 21/29/23 23/13/23 11/15/23
f 24/21/24 26/30/24 23/13/24
f 25/10/25 14/12/25 13/14/25
f 12/26/26 14/12/26 19/11/26
f 27/19/27 29/31/27 25/10/27
f 20/6/28 19/11/28 29/31/28
f 18/28/29 20/6/29 16/5/29
f 30/18/30 32/32/30 28/4/30
f 31/1/31 17/3/31 16/5/31
f 15/27/32 17/3/32 10/2/32
f 22/8/33 21/29/33 31/1/33
f 18/28/34 15/27/34 9/25/34
f 34/33/35 36/36/35 35/34/35
f 36/36/36 40/38/36 39/37/36
f 40/38/37 38/40/37 37/39/37
f 38/40/38 34/33/38 33/35/38
f 39/37/34 37/39/34 33/35/34
f 36/36/10 34/33/10 38/40/10
f 52/41/37 44/44/37 43/42/37
f 44/44/36 48/56/36 47/45/36
f 46/46/38 45/50/38 70/47/38
f 46/46/38 42/62/38 41/49/38
f 53/51/10 45/50/10 41/49/10
f 51/53/55 42/62/56 46/46/57
f 44/44/55 52/41/58 55/55/57
f 55/55/59 52/41/60 51/53/61
f 47/45/10 54/61/10 49/43/10
f 50/52/46 49/43/46 85/57/46
f 55/55/38 54/61/38 67/59/38
f 55/55/35 56/54/35 53/51/35
f 42/62/37 51/53/37 50/52/37
f 51/53/37 52/41/37 49/43/37
f 57/63/36 73/79/36 74/64/36
f 61/66/34 77/81/34 76/67/34
f 48/56/46 55/55/46 72/60/46
f 54/61/46 47/45/46 66/70/46
f 45/50/46 53/51/46 71/71/46
f 53/51/38 56/54/38 68/72/38
f 56/54/46 46/46/46 69/48/46
f 47/45/38 48/56/38 65/69/38
f 58/65/35 66/70/35 65/69/35
f 59/73/35 67/59/35 66/70/35
f 60/68/35 68/72/35 69/48/35
f 61/66/35 69/48/35 70/47/35
f 62/74/35 70/47/35 71/71/35
f 57/63/35 65/69/35 72/60/35
f 64/76/35 72/60/35 67/59/35
f 63/75/35 71/71/35 68/72/35
f 76/67/35 77/81/35 78/77/35
f 73/79/35 80/82/35 75/80/35
f 60/68/36 76/67/36 79/78/36
f 64/76/34 80/82/34 73/79/34
f 62/74/38 78/77/38 77/81/38
f 58/65/10 74/64/10 75/80/10
f 59/73/38 75/80/38 80/82/38
f 63/75/10 79/78/10 78/77/10
f 93/83/36 92/99/36 89/84/36
f 49/43/38 54/61/38 88/86/38
f 53/51/38 50/52/38 86/58/38
f 54/61/46 53/51/46 87/87/46
f 82/88/10 86/58/10 85/57/10
f 84/90/10 88/86/10 87/87/10
f 81/89/10 85/57/10 88/86/10
f 82/88/10 83/91/10 87/87/10
f 89/84/10 92/99/10 91/92/10
f 102/94/62 101/106/62 97/95/62
f 95/97/38 90/93/38 91/92/38
f 96/98/35 91/92/35 92/99/35
f 83/91/35 96/98/35 93/83/35
f 82/88/38 95/97/38 96/98/38
f 81/89/37 94/85/37 95/97/37
f 84/90/36 93/83/36 94/85/36
f 100/100/48 99/96/48 97/95/48
f 99/96/46 100/100/46 108/102/46
f 103/104/63 100/100/63 98/101/63
f 104/105/50 98/101/50 97/95/50
f 90/93/10 104/105/10 101/106/10
f 95/97/38 103/104/38 104/105/38
f 94/85/34 102/94/34 103/104/34
f 89/84/36 101/106/36 102/94/36
f 120/107/34 122/120/34 121/108/34
f 105/110/51 124/123/51 123/111/51
f 102/94/38 99/96/38 107/103/38
f 110/114/34 118/125/34 116/115/34
f 107/103/34 115/122/34 117/116/34
f 103/104/46 102/94/46 109/113/46
f 100/100/38 103/104/38 110/114/38
f 115/117/36 119/109/36 121/108/36
f 116/119/37 120/107/37 119/109/37
f 117/118/35 121/108/35 122/120/35
f 118/121/38 122/120/38 120/107/38
f 108/102/34 116/115/34 115/122/34
f 124/123/37 126/126/37 125/124/37
f 110/114/34 109/113/34 117/116/34
f 126/126/52 128/128/52 127/127/52
f 128/128/53 130/131/53 129/129/53
f 130/131/38 128/128/38 105/110/38
f 128/128/38 126/126/38 105/110/38
f 126/126/38 124/123/38 105/110/38
f 129/129/35 130/131/35 132/130/35
f 131/132/54 132/130/54 105/110/54
f 123/111/36 125/124/36 127/127/36
f 127/127/36 129/129/36 131/132/36
f 131/132/36 106/112/36 127/127/36
