# Blender v2.82 (sub 7) OBJ File: 'chair.blend'
# www.blender.org
mtllib chair.mtl
o Cube
v 0.785517 0.536432 -0.897706
v 0.258028 0.536432 -0.897706
v 0.092879 0.686876 -0.198851
v 0.092879 0.686876 -0.738773
v 0.092879 0.536432 -0.738773
v 0.092879 0.536432 -0.198851
v 0.258028 0.686876 -0.198851
v 0.258028 0.686876 -0.738773
v 0.785517 0.686876 -0.198851
v 0.785517 0.686876 -0.738773
v 0.258028 0.536432 -0.738773
v 0.258028 0.536432 -0.198851
v 0.785517 0.536432 -0.738773
v 0.785517 0.536432 -0.198851
v 0.258028 0.536432 -0.738773
v 0.258028 0.536432 -0.198851
v 0.785517 0.536432 -0.738773
v 0.785517 0.536432 -0.198851
v 0.785517 0.536432 -0.897706
v 0.117124 0.536432 -0.039918
v 0.092879 0.536432 -0.064164
v 0.117124 0.686876 -0.039918
v 0.092879 0.686876 -0.064164
v 0.950667 0.536432 -0.064164
v 0.926421 0.536432 -0.039918
v 0.926421 0.662631 -0.039918
v 0.950667 0.662631 -0.064164
v 0.926421 0.686876 -0.064164
v 0.092879 0.536432 -0.873461
v 0.117124 0.536432 -0.897706
v 0.092879 0.686876 -0.873461
v 0.117124 0.686876 -0.897706
v 0.926421 0.536432 -0.897706
v 0.950667 0.536432 -0.873461
v 0.926421 0.686876 -0.873461
v 0.950667 0.662631 -0.873461
v 0.926421 0.662631 -0.897706
v 0.233783 0.662631 -0.897706
v 0.258028 0.686876 -0.873461
v 0.785517 0.662631 -0.897706
v 0.785517 0.686876 -0.873461
v 0.258028 0.536432 -0.064164
v 0.258028 0.560677 -0.039918
v 0.233783 0.536432 -0.039918
v 0.258028 0.536432 -0.039918
v 0.785517 0.560677 -0.039918
v 0.785517 0.536432 -0.064164
v 0.785517 0.536432 -0.039918
v 0.809763 0.536432 -0.039918
v 0.785517 0.686876 -0.064164
v 0.785517 0.662631 -0.039918
v 0.258028 0.686876 -0.064164
v 0.233783 0.662631 -0.039918
v 0.926421 0.536432 -0.198851
v 0.950667 0.560677 -0.198851
v 0.950667 0.536432 -0.174606
v 0.950667 0.560677 -0.738773
v 0.926421 0.536432 -0.738773
v 0.950667 0.536432 -0.763019
v 0.926421 0.686876 -0.738773
v 0.950667 0.662631 -0.738773
v 0.950667 0.662631 -0.198851
v 0.926421 0.686876 -0.198851
v 0.926421 0.536432 -0.738773
v 0.950667 0.536432 -0.763019
v 0.950667 0.536432 -0.873461
v 0.926421 0.536432 -0.897706
v 0.785517 0.536432 -0.064164
v 0.809763 0.536432 -0.039918
v 0.785517 0.536432 -0.039918
v 0.926421 0.536432 -0.039918
v 0.950667 0.536432 -0.064164
v 0.258028 0.536432 -0.873461
v 0.233783 0.536432 -0.897706
v 0.258028 0.536432 -0.897706
v 0.117124 0.536432 -0.897706
v 0.092879 0.536432 -0.873461
v 0.117124 0.536432 -0.198851
v 0.092879 0.536432 -0.174606
v 0.092879 0.536432 -0.198851
v 0.092879 0.536432 -0.064164
v 0.117124 0.536432 -0.039918
v 0.233783 0.536432 -0.039918
v 0.258028 0.536432 -0.064164
v 0.258028 0.536432 -0.039918
v 0.258028 0.536432 -0.174606
v 0.233783 0.536432 -0.198851
v 0.258028 0.536432 -0.198851
v 0.809763 0.536432 -0.198851
v 0.785517 0.536432 -0.174606
v 0.785517 0.536432 -0.198851
v 0.950667 0.536432 -0.174606
v 0.926421 0.536432 -0.198851
v 0.092879 0.536432 -0.763019
v 0.117124 0.536432 -0.738773
v 0.092879 0.536432 -0.738773
v 0.233783 0.536432 -0.738773
v 0.258028 0.536432 -0.763019
v 0.258028 0.536432 -0.738773
v 0.785517 0.536432 -0.763019
v 0.809763 0.536432 -0.738773
v 0.785517 0.536432 -0.738773
v 0.950667 0.037121 -0.763019
v 0.926421 0.037121 -0.738773
v 0.926421 0.012875 -0.763019
v 0.950667 0.037121 -0.873461
v 0.926421 0.012875 -0.873461
v 0.926421 0.037121 -0.897706
v 0.809763 0.037121 -0.039918
v 0.785517 0.037121 -0.064164
v 0.809763 0.012875 -0.064164
v 0.926421 0.037121 -0.039918
v 0.926421 0.012875 -0.064164
v 0.950667 0.037121 -0.064164
v 0.233783 0.037120 -0.897706
v 0.258028 0.037120 -0.873461
v 0.233783 0.012875 -0.873461
v 0.117124 0.037120 -0.897706
v 0.117124 0.012875 -0.873461
v 0.092879 0.037120 -0.873461
v 0.092879 0.037120 -0.174606
v 0.117124 0.037120 -0.198851
v 0.117124 0.012875 -0.174606
v 0.092879 0.037120 -0.064164
v 0.117124 0.012875 -0.064164
v 0.117124 0.037120 -0.039918
v 0.233783 0.037120 -0.039918
v 0.233783 0.012875 -0.064164
v 0.258028 0.037120 -0.064164
v 0.809763 0.012875 -0.873461
v 0.785517 0.037121 -0.897706
v 0.258028 0.037120 -0.174606
v 0.233783 0.012875 -0.174606
v 0.233783 0.037120 -0.198851
v 0.785517 0.037121 -0.174606
v 0.809763 0.037121 -0.198851
v 0.809763 0.012875 -0.174606
v 0.950667 0.037121 -0.174606
v 0.926421 0.012875 -0.174606
v 0.926421 0.037121 -0.198851
v 0.092879 0.037120 -0.763018
v 0.117124 0.012875 -0.763018
v 0.117124 0.037120 -0.738773
v 0.258028 0.037120 -0.763019
v 0.233783 0.037120 -0.738773
v 0.233783 0.012875 -0.763019
v 0.785517 0.037121 -0.763019
v 0.809763 0.012875 -0.763019
v 0.809763 0.037121 -0.738773
v 0.092879 1.425058 -0.738773
v 0.117124 1.449303 -0.738773
v 0.092879 1.425058 -0.873461
v 0.117124 1.449303 -0.873461
v 0.117124 1.425058 -0.897706
v 0.233783 1.425058 -0.039918
v 0.258028 1.425058 -0.064164
v 0.233783 1.449303 -0.064164
v 0.092879 1.425058 -0.064164
v 0.117124 1.425058 -0.039918
v 0.117124 1.449303 -0.064164
v 0.233783 1.425058 -0.897706
v 0.233783 1.449303 -0.873461
v 0.258028 1.425058 -0.873461
v 0.233783 1.449303 -0.738773
v 0.258028 1.425058 -0.738773
v 0.117124 1.449303 -0.198851
v 0.092879 1.425058 -0.198851
v 0.258028 1.425058 -0.198851
v 0.233783 1.449303 -0.198851
vt 0.829745 0.782990
vt 0.829745 0.782990
vt 0.829745 0.782990
vt 0.829745 0.782990
vt 0.829745 0.782990
vt 0.829745 0.782990
vt 0.829745 0.782990
vt 0.829745 0.782990
vt 0.829745 0.782990
vt 0.829745 0.782990
vt 0.829745 0.782990
vt 0.829745 0.782990
vt 0.829745 0.782990
vt 0.829745 0.782990
vt 0.829745 0.782990
vt 0.829745 0.782990
vt 0.829745 0.782990
vt 0.829745 0.782990
vt 0.829745 0.782990
vt 0.829745 0.782990
vt 0.829745 0.782990
vt 0.829745 0.782990
vt 0.829745 0.782990
vt 0.829745 0.782990
vt 0.829745 0.782990
vt 0.829745 0.782990
vt 0.829745 0.782990
vt 0.829745 0.782990
vt 0.829745 0.782990
vt 0.829745 0.782990
vt 0.829745 0.782990
vt 0.829745 0.782990
vt 0.829745 0.782990
vt 0.829745 0.782990
vt 0.829745 0.782990
vt 0.829745 0.782990
vt 0.829745 0.782990
vt 0.829745 0.782990
vt 0.829745 0.782990
vt 0.829745 0.782990
vt 0.829745 0.782990
vt 0.829745 0.782990
vt 0.829745 0.782990
vt 0.829745 0.782990
vt 0.829745 0.782990
vt 0.829745 0.782990
vt 0.829745 0.782990
vt 0.829745 0.782990
vt 0.829745 0.782990
vt 0.829745 0.782990
vt 0.829745 0.782990
vt 0.829745 0.782990
vt 0.829745 0.782990
vt 0.829745 0.782990
vt 0.829745 0.782990
vt 0.829745 0.782990
vt 0.829745 0.782990
vt 0.829745 0.782990
vt 0.829745 0.782990
vt 0.829745 0.782990
vt 0.829745 0.782990
vt 0.829745 0.782990
vt 0.829745 0.782990
vt 0.829745 0.782990
vt 0.829745 0.782990
vt 0.829745 0.782990
vt 0.829745 0.782990
vt 0.829745 0.782990
vt 0.829745 0.782990
vt 0.829745 0.782990
vt 0.829745 0.782990
vt 0.829745 0.782990
vt 0.829745 0.782990
vt 0.829745 0.782990
vt 0.829745 0.782990
vt 0.829745 0.782990
vt 0.829745 0.782990
vt 0.829745 0.782990
vt 0.829745 0.782990
vt 0.829745 0.782990
vt 0.829745 0.782990
vt 0.829745 0.782990
vt 0.829745 0.782990
vt 0.829745 0.782990
vt 0.829745 0.782990
vt 0.829745 0.782990
vt 0.829745 0.782990
vt 0.829745 0.782990
vt 0.829745 0.782990
vt 0.829745 0.782990
vt 0.829745 0.782990
vt 0.829745 0.782990
vt 0.829745 0.782990
vt 0.829745 0.782990
vt 0.829745 0.782990
vt 0.829745 0.782990
vt 0.829745 0.782990
vt 0.829745 0.782990
vt 0.829745 0.782990
vt 0.829745 0.782990
vt 0.829745 0.782990
vt 0.829745 0.782990
vt 0.829745 0.782990
vt 0.829745 0.782990
vt 0.829745 0.782990
vt 0.829745 0.782990
vt 0.829745 0.782990
vt 0.829745 0.782990
vt 0.829745 0.782990
vt 0.829745 0.782990
vt 0.829745 0.782990
vt 0.829745 0.782990
vt 0.829745 0.782990
vt 0.829745 0.782990
vt 0.829745 0.782990
vt 0.829745 0.782990
vt 0.829745 0.782990
vt 0.829745 0.782990
vt 0.829745 0.782990
vt 0.829745 0.782990
vt 0.829745 0.782990
vt 0.829745 0.782990
vt 0.829745 0.782990
vt 0.829745 0.782990
vt 0.829745 0.782990
vt 0.829745 0.782990
vt 0.829745 0.782990
vt 0.829745 0.782990
vt 0.829745 0.782990
vt 0.829745 0.782990
vt 0.829745 0.782990
vt 0.829745 0.782990
vt 0.829745 0.782990
vt 0.829745 0.782990
vt 0.829745 0.782990
vt 0.829745 0.782990
vt 0.829745 0.782990
vt 0.829745 0.782990
vt 0.829745 0.782990
vt 0.829745 0.782990
vt 0.829745 0.782990
vt 0.829745 0.782990
vt 0.829745 0.782990
vt 0.829745 0.782990
vt 0.829745 0.782990
vt 0.829745 0.782990
vt 0.829745 0.782990
vt 0.829745 0.782990
vt 0.829745 0.782990
vt 0.829745 0.782990
vt 0.829745 0.782990
vt 0.829745 0.782990
vt 0.829745 0.782990
vt 0.829745 0.782990
vt 0.829745 0.782990
vt 0.829745 0.782990
vt 0.829745 0.782990
vt 0.829745 0.782990
vt 0.829745 0.782990
vt 0.829745 0.782990
vt 0.829745 0.782990
vt 0.829745 0.782990
vt 0.829745 0.782990
vt 0.829745 0.782990
vt 0.829745 0.782990
vt 0.829745 0.782990
vt 0.829745 0.782990
vt 0.829745 0.782990
vt 0.829745 0.782990
vn 0.0000 -1.0000 0.0000
vn -1.0000 0.0000 0.0000
vn 0.0000 1.0000 0.0000
vn 1.0000 0.0000 -0.0000
vn 0.0000 0.0000 -1.0000
vn 0.0000 0.0000 1.0000
vn 0.5773 0.5774 0.5774
vn 0.5773 0.5773 -0.5774
vn 0.5773 -0.5773 0.5774
vn 0.5774 -0.5773 -0.5774
vn -0.5774 -0.5774 0.5773
vn 0.5774 -0.5773 0.5774
vn 0.5773 -0.5774 -0.5774
vn -0.5773 -0.5774 -0.5774
vn -0.5774 -0.5774 -0.5774
vn -0.5774 -0.5774 0.5774
vn 0.5774 -0.5774 -0.5774
vn -0.5774 -0.5773 -0.5774
vn -0.5774 -0.5773 0.5774
vn 0.5773 -0.5774 0.5774
vn -0.5773 -0.5773 0.5774
vn -0.5774 0.5774 -0.5773
vn 0.5774 0.5774 0.5773
vn -0.5774 0.5774 0.5773
vn 0.5774 0.5774 -0.5773
vn 0.0000 0.7071 -0.7071
vn -0.7071 0.0000 0.7071
vn 0.7071 0.0000 -0.7071
vn 0.7071 0.0000 0.7071
vn -0.7071 0.0000 -0.7071
vn 0.7071 0.7071 0.0000
vn 0.0000 -0.7071 0.7071
vn -0.0000 0.7071 0.7071
vn 0.7071 -0.7071 0.0000
vn 0.0000 -0.7071 -0.7071
vn -0.7071 -0.7071 -0.0000
vn -0.7071 0.7071 0.0000
usemtl Material
s off
f 130/1/1 105/2/1 148/3/1
f 29/4/2 4/5/2 31/6/2
f 47/7/3 14/8/3 90/9/3
f 23/10/2 167/11/2 3/12/2
f 7/13/4 156/14/4 52/15/4
f 42/16/1 14/8/1 47/7/1
f 52/15/3 9/17/3 7/13/3
f 2/18/1 13/19/1 11/20/1
f 12/21/1 42/16/1 86/22/1
f 38/23/5 30/24/5 32/25/5
f 5/26/1 12/21/1 6/27/1
f 39/28/4 165/29/4 8/30/4
f 7/13/3 10/31/3 8/30/3
f 55/32/4 27/33/4 56/34/4
f 5/26/2 3/12/2 4/5/2
f 8/30/3 41/35/3 39/28/3
f 65/36/4 106/37/4 66/38/4
f 43/39/6 51/40/6 53/41/6
f 15/42/1 18/43/1 16/44/1
f 64/45/6 149/46/6 104/47/6
f 72/48/4 138/49/4 92/50/4
f 95/51/6 145/52/6 97/53/6
f 93/54/5 136/55/5 89/56/5
f 10/31/3 35/57/3 41/35/3
f 55/32/4 61/58/4 62/59/4
f 6/27/2 23/10/2 3/12/2
f 50/60/3 63/61/3 9/17/3
f 9/17/3 60/62/3 10/31/3
f 49/63/6 25/64/6 26/65/6
f 59/66/4 34/67/4 36/68/4
f 4/5/2 152/69/2 31/6/2
f 82/70/6 127/71/6 83/72/6
f 19/73/2 147/74/2 100/75/2
f 22/76/6 155/77/6 159/78/6
f 77/79/2 141/80/2 94/81/2
f 137/82/1 113/83/1 111/84/1
f 123/85/1 128/86/1 125/87/1
f 151/88/3 162/89/3 153/90/3
f 119/91/1 146/92/1 142/93/1
f 67/94/5 131/95/5 19/73/5
f 74/96/5 118/97/5 76/98/5
f 90/9/2 110/99/2 68/100/2
f 79/101/2 124/102/2 81/103/2
f 98/104/4 116/105/4 73/106/4
f 2/18/3 11/20/3 73/106/3
f 87/107/5 122/108/5 78/109/5
f 13/19/6 1/110/6 100/75/6
f 84/111/4 132/112/4 86/22/4
f 6/27/6 12/21/6 78/109/6
f 69/113/6 112/114/6 71/115/6
f 11/20/6 5/26/6 97/53/6
f 165/29/4 7/13/4 8/30/4
f 3/12/2 150/116/2 4/5/2
f 160/117/3 169/118/3 166/119/3
f 40/120/5 2/18/5 38/23/5
f 166/119/3 164/121/3 151/88/3
f 14/8/1 58/122/1 54/123/1
f 32/25/5 161/124/5 38/23/5
f 33/125/5 40/120/5 37/126/5
f 26/65/7 27/33/7 28/127/7
f 35/57/8 36/68/8 37/126/8
f 43/39/4 45/128/4 42/16/4
f 46/129/6 48/130/6 49/63/6
f 68/100/1 69/113/1 70/131/1
f 73/106/1 74/96/1 75/132/1
f 78/109/1 79/101/1 80/133/1
f 83/72/1 84/111/1 85/134/1
f 86/22/1 87/107/1 88/135/1
f 89/56/1 90/9/1 91/136/1
f 94/81/1 95/51/1 96/137/1
f 97/53/1 98/104/1 99/138/1
f 100/75/1 101/139/1 102/140/1
f 103/141/9 104/47/9 105/2/9
f 106/37/10 107/142/10 108/143/10
f 109/144/11 110/99/11 111/84/11
f 112/114/12 113/83/12 114/145/12
f 115/146/13 116/105/13 117/147/13
f 118/97/14 119/91/14 120/148/14
f 121/149/15 122/108/15 123/85/15
f 124/102/16 125/87/16 126/150/16
f 127/71/12 128/86/12 129/151/12
f 132/112/17 133/152/17 134/153/17
f 135/154/18 136/55/18 137/82/18
f 138/49/10 139/155/10 140/156/10
f 141/80/19 142/93/19 143/157/19
f 144/158/20 145/52/20 146/92/20
f 147/74/21 148/3/21 149/46/21
f 152/69/22 153/90/22 154/159/22
f 155/77/23 156/14/23 157/160/23
f 158/161/24 159/78/24 160/117/24
f 161/124/25 162/89/25 163/162/25
f 35/57/26 40/120/26 41/35/26
f 22/76/27 21/163/27 20/164/27
f 34/67/28 37/126/28 36/68/28
f 27/33/29 25/64/29 24/165/29
f 31/6/30 30/24/30 29/4/30
f 28/127/31 62/59/31 63/61/31
f 39/28/26 40/120/26 38/23/26
f 47/7/32 43/39/32 42/16/32
f 50/60/33 26/65/33 28/127/33
f 52/15/33 51/40/33 50/60/33
f 58/122/34 55/32/34 54/123/34
f 60/62/31 36/68/31 35/57/31
f 63/61/31 61/58/31 60/62/31
f 159/78/27 23/10/27 22/76/27
f 107/142/34 103/141/34 105/2/34
f 113/83/32 109/144/32 111/84/32
f 119/91/35 115/146/35 117/147/35
f 125/87/36 121/149/36 123/85/36
f 128/86/32 126/150/32 125/87/32
f 130/1/35 108/143/35 107/142/35
f 129/151/34 133/152/34 132/112/34
f 111/84/36 135/154/36 137/82/36
f 139/155/34 114/145/34 113/83/34
f 142/93/36 120/148/36 119/91/36
f 144/158/34 117/147/34 116/105/34
f 130/1/36 147/74/36 131/95/36
f 134/153/35 123/85/35 122/108/35
f 142/93/32 145/52/32 143/157/32
f 140/156/35 137/82/35 136/55/35
f 105/2/32 149/46/32 148/3/32
f 127/71/29 84/111/29 83/72/29
f 87/107/28 132/112/28 134/153/28
f 138/49/28 93/54/28 92/50/28
f 90/9/30 136/55/30 135/154/30
f 69/113/27 110/99/27 109/144/27
f 104/47/29 65/36/29 64/45/29
f 67/94/28 106/37/28 108/143/28
f 147/74/27 101/139/27 100/75/27
f 112/114/29 72/48/29 71/115/29
f 76/98/30 120/148/30 77/79/30
f 95/51/27 141/80/27 143/157/27
f 116/105/28 74/96/28 73/106/28
f 145/52/29 98/104/29 97/53/29
f 122/108/30 79/101/30 78/109/30
f 82/70/27 124/102/27 126/150/27
f 153/90/37 150/116/37 151/88/37
f 160/117/33 155/77/33 157/160/33
f 162/89/26 154/159/26 153/90/26
f 163/162/31 164/121/31 165/29/31
f 166/119/37 158/161/37 160/117/37
f 151/88/37 167/11/37 166/119/37
f 156/14/31 169/118/31 157/160/31
f 165/29/31 169/118/31 168/166/31
f 52/15/29 155/77/29 53/41/29
f 161/124/28 39/28/28 38/23/28
f 32/25/30 152/69/30 154/159/30
f 44/167/6 43/39/6 53/41/6
f 130/1/1 107/142/1 105/2/1
f 29/4/2 5/26/2 4/5/2
f 14/8/6 91/136/6 90/9/6
f 68/100/6 70/131/6 48/130/6
f 68/100/6 48/130/6 47/7/6
f 90/9/6 68/100/6 47/7/6
f 23/10/2 158/161/2 167/11/2
f 7/13/4 168/166/4 156/14/4
f 42/16/1 12/21/1 14/8/1
f 52/15/3 50/60/3 9/17/3
f 2/18/1 1/110/1 13/19/1
f 86/22/6 88/135/6 12/21/6
f 42/16/6 45/128/6 85/134/6
f 42/16/6 85/134/6 84/111/6
f 42/16/6 84/111/6 86/22/6
f 38/23/5 2/18/5 30/24/5
f 5/26/1 11/20/1 12/21/1
f 39/28/4 163/162/4 165/29/4
f 7/13/3 9/17/3 10/31/3
f 62/59/4 27/33/4 55/32/4
f 27/33/4 24/165/4 56/34/4
f 5/26/2 6/27/2 3/12/2
f 8/30/3 10/31/3 41/35/3
f 65/36/4 103/141/4 106/37/4
f 43/39/6 46/129/6 51/40/6
f 15/42/1 17/168/1 18/43/1
f 64/45/6 101/139/6 149/46/6
f 72/48/4 114/145/4 138/49/4
f 95/51/6 143/157/6 145/52/6
f 93/54/5 140/156/5 136/55/5
f 10/31/3 60/62/3 35/57/3
f 55/32/4 57/169/4 61/58/4
f 6/27/2 21/163/2 23/10/2
f 50/60/3 28/127/3 63/61/3
f 9/17/3 63/61/3 60/62/3
f 26/65/6 51/40/6 46/129/6
f 46/129/6 49/63/6 26/65/6
f 36/68/4 61/58/4 57/169/4
f 57/169/4 59/66/4 36/68/4
f 4/5/2 150/116/2 152/69/2
f 82/70/6 126/150/6 127/71/6
f 19/73/2 131/95/2 147/74/2
f 22/76/6 53/41/6 155/77/6
f 77/79/2 120/148/2 141/80/2
f 137/82/1 139/155/1 113/83/1
f 123/85/1 133/152/1 128/86/1
f 151/88/3 164/121/3 162/89/3
f 119/91/1 117/147/1 146/92/1
f 67/94/5 108/143/5 131/95/5
f 74/96/5 115/146/5 118/97/5
f 90/9/2 135/154/2 110/99/2
f 79/101/2 121/149/2 124/102/2
f 98/104/4 144/158/4 116/105/4
f 11/20/6 99/138/6 98/104/6
f 73/106/6 75/132/6 2/18/6
f 11/20/6 98/104/6 73/106/6
f 87/107/5 134/153/5 122/108/5
f 1/110/6 19/73/6 100/75/6
f 100/75/6 102/140/6 13/19/6
f 84/111/4 129/151/4 132/112/4
f 12/21/6 88/135/6 87/107/6
f 78/109/6 80/133/6 6/27/6
f 12/21/5 87/107/5 78/109/5
f 69/113/6 109/144/6 112/114/6
f 5/26/6 96/137/6 95/51/6
f 97/53/6 99/138/6 11/20/6
f 5/26/6 95/51/6 97/53/6
f 165/29/4 168/166/4 7/13/4
f 3/12/2 167/11/2 150/116/2
f 160/117/3 157/160/3 169/118/3
f 40/120/5 1/110/5 2/18/5
f 166/119/3 169/118/3 164/121/3
f 14/8/1 13/19/1 58/122/1
f 32/25/5 154/159/5 161/124/5
f 33/125/5 1/110/5 40/120/5
f 43/39/6 44/167/6 45/128/6
f 46/129/2 47/7/2 48/130/2
f 35/57/26 37/126/26 40/120/26
f 22/76/27 23/10/27 21/163/27
f 34/67/28 33/125/28 37/126/28
f 27/33/29 26/65/29 25/64/29
f 31/6/30 32/25/30 30/24/30
f 28/127/31 27/33/31 62/59/31
f 39/28/26 41/35/26 40/120/26
f 47/7/32 46/129/32 43/39/32
f 50/60/33 51/40/33 26/65/33
f 52/15/33 53/41/33 51/40/33
f 58/122/34 57/169/34 55/32/34
f 60/62/31 61/58/31 36/68/31
f 63/61/31 62/59/31 61/58/31
f 159/78/27 158/161/27 23/10/27
f 107/142/34 106/37/34 103/141/34
f 113/83/32 112/114/32 109/144/32
f 119/91/35 118/97/35 115/146/35
f 125/87/36 124/102/36 121/149/36
f 128/86/32 127/71/32 126/150/32
f 130/1/35 131/95/35 108/143/35
f 129/151/34 128/86/34 133/152/34
f 111/84/36 110/99/36 135/154/36
f 139/155/34 138/49/34 114/145/34
f 142/93/36 141/80/36 120/148/36
f 144/158/34 146/92/34 117/147/34
f 130/1/36 148/3/36 147/74/36
f 134/153/35 133/152/35 123/85/35
f 142/93/32 146/92/32 145/52/32
f 140/156/35 139/155/35 137/82/35
f 105/2/32 104/47/32 149/46/32
f 127/71/29 129/151/29 84/111/29
f 87/107/28 86/22/28 132/112/28
f 138/49/28 140/156/28 93/54/28
f 90/9/30 89/56/30 136/55/30
f 69/113/27 68/100/27 110/99/27
f 104/47/29 103/141/29 65/36/29
f 67/94/28 66/38/28 106/37/28
f 147/74/27 149/46/27 101/139/27
f 112/114/29 114/145/29 72/48/29
f 76/98/30 118/97/30 120/148/30
f 95/51/27 94/81/27 141/80/27
f 116/105/28 115/146/28 74/96/28
f 145/52/29 144/158/29 98/104/29
f 122/108/30 121/149/30 79/101/30
f 82/70/27 81/103/27 124/102/27
f 153/90/37 152/69/37 150/116/37
f 160/117/33 159/78/33 155/77/33
f 162/89/26 161/124/26 154/159/26
f 163/162/31 162/89/31 164/121/31
f 166/119/37 167/11/37 158/161/37
f 151/88/37 150/116/37 167/11/37
f 156/14/31 168/166/31 169/118/31
f 165/29/31 164/121/31 169/118/31
f 52/15/29 156/14/29 155/77/29
f 161/124/28 163/162/28 39/28/28
f 32/25/30 31/6/30 152/69/30
f 53/41/6 22/76/6 20/164/6
f 20/164/6 44/167/6 53/41/6
