# Blender v2.82 (sub 7) OBJ File: 'startup_file.blend'
# www.blender.org
mtllib clock.mtl
o clock_Cylinder.001
v 0.264025 -0.000827 -0.492552
v 0.230503 -0.000827 -0.412593
v 0.228683 -0.132723 -0.492552
v 0.199653 -0.115963 -0.412593
v 0.132129 -0.229278 -0.492552
v 0.115368 -0.200247 -0.412593
v 0.000233 -0.264619 -0.492552
v 0.000233 -0.231098 -0.412593
v -0.131663 -0.229278 -0.492552
v -0.114902 -0.200247 -0.412593
v -0.228217 -0.132723 -0.492552
v -0.199187 -0.115963 -0.412593
v -0.263559 -0.000828 -0.492552
v -0.230037 -0.000827 -0.412593
v -0.228217 0.131068 -0.492552
v -0.199187 0.114308 -0.412593
v -0.131663 0.227623 -0.492552
v -0.114902 0.198592 -0.412593
v 0.000233 0.262964 -0.492552
v 0.000233 0.229443 -0.412593
v 0.132129 0.227623 -0.492552
v 0.115368 0.198593 -0.412593
v 0.228683 0.131069 -0.492552
v 0.199653 0.114308 -0.412593
v 0.228683 -0.132723 -0.412593
v 0.264025 -0.000827 -0.412593
v 0.132129 -0.229278 -0.412593
v 0.000233 -0.264619 -0.412593
v -0.131663 -0.229278 -0.412593
v -0.228217 -0.132723 -0.412593
v -0.263559 -0.000827 -0.412593
v -0.228217 0.131068 -0.412593
v -0.131663 0.227623 -0.412593
v 0.000233 0.262964 -0.412593
v 0.132129 0.227623 -0.412593
v 0.228683 0.131069 -0.412593
v 0.023875 -0.014477 -0.434802
v 0.027532 -0.000827 -0.434802
v 0.013882 -0.024469 -0.434802
v 0.000233 -0.028127 -0.434802
v -0.013417 -0.024469 -0.434802
v -0.023409 -0.014477 -0.434802
v -0.027066 -0.000827 -0.434802
v -0.023409 0.012822 -0.434802
v -0.013417 0.022814 -0.434802
v 0.000233 0.026472 -0.434802
v 0.013882 0.022814 -0.434802
v 0.023875 0.012822 -0.434802
v 0.199653 -0.115963 -0.434802
v 0.230503 -0.000827 -0.434802
v 0.115368 -0.200247 -0.434802
v 0.000233 -0.231098 -0.434802
v -0.114902 -0.200247 -0.434802
v -0.199187 -0.115963 -0.434802
v -0.230037 -0.000827 -0.434802
v -0.199187 0.114308 -0.434802
v -0.114902 0.198592 -0.434802
v 0.000233 0.229443 -0.434802
v 0.115368 0.198593 -0.434802
v 0.199653 0.114308 -0.434802
v 0.023875 -0.014477 -0.396388
v 0.027532 -0.000827 -0.396388
v 0.013882 -0.024469 -0.396388
v 0.000233 -0.028127 -0.396388
v -0.013417 -0.024469 -0.396388
v -0.023409 -0.014477 -0.396388
v -0.027066 -0.000827 -0.396388
v -0.023409 0.012822 -0.396388
v -0.013417 0.022814 -0.396388
v 0.000233 0.026472 -0.396388
v 0.013882 0.022814 -0.396388
v 0.023875 0.012822 -0.396388
v -0.006679 0.155699 -0.418503
v -0.009568 0.010758 -0.420171
v 0.007145 0.155699 -0.418503
v 0.010033 0.010758 -0.420171
v -0.006679 0.155699 -0.410520
v -0.009568 0.010758 -0.408852
v 0.007145 0.155699 -0.410520
v 0.010033 0.010758 -0.408852
v 0.009178 0.216361 -0.443000
v 0.009178 0.153435 -0.443000
v -0.008207 0.216361 -0.443000
v -0.008207 0.153435 -0.443000
v 0.003993 -0.012813 -0.428776
v 0.003993 0.011159 -0.428776
v 0.125891 -0.008069 -0.424032
v 0.125891 0.006414 -0.424032
v 0.003993 -0.012813 -0.404804
v 0.003993 0.011159 -0.404804
v 0.125891 -0.008069 -0.409549
v 0.125891 0.006414 -0.409549
v -0.008207 0.153435 -0.425615
v -0.008207 0.216361 -0.425615
v 0.009178 0.153435 -0.425615
v 0.009178 0.216361 -0.425615
v 0.112789 0.182782 -0.435397
v 0.094057 0.150564 -0.435397
v 0.103888 0.187957 -0.435397
v 0.085156 0.155740 -0.435397
v 0.085156 0.155740 -0.425101
v 0.103888 0.187957 -0.425101
v 0.094057 0.150564 -0.425101
v 0.112789 0.182782 -0.425101
v 0.189210 0.101638 -0.435397
v 0.156853 0.083147 -0.435397
v 0.184101 0.110578 -0.435397
v 0.151744 0.092087 -0.435397
v 0.151744 0.092087 -0.425101
v 0.184101 0.110578 -0.425101
v 0.156853 0.083147 -0.425101
v 0.189210 0.101638 -0.425101
v 0.183684 -0.111315 -0.435397
v 0.151316 -0.092843 -0.435397
v 0.188787 -0.102372 -0.435397
v 0.156420 -0.083900 -0.435397
v 0.156420 -0.083900 -0.425101
v 0.188787 -0.102372 -0.425101
v 0.151316 -0.092843 -0.425101
v 0.183684 -0.111315 -0.425101
v 0.104235 -0.187792 -0.435397
v 0.085300 -0.155693 -0.435397
v 0.113103 -0.182561 -0.435397
v 0.094169 -0.150462 -0.435397
v 0.094168 -0.150461 -0.425101
v 0.113103 -0.182561 -0.425101
v 0.085300 -0.155693 -0.425101
v 0.104235 -0.187792 -0.425101
v -0.111930 -0.183309 -0.435397
v -0.093350 -0.151004 -0.435397
v -0.103005 -0.188443 -0.435397
v -0.084424 -0.156137 -0.435397
v -0.084424 -0.156137 -0.425101
v -0.103005 -0.188443 -0.425101
v -0.093350 -0.151004 -0.425101
v -0.111930 -0.183309 -0.425101
v -0.188160 -0.103569 -0.435397
v -0.155994 -0.084748 -0.435397
v -0.182960 -0.112456 -0.435397
v -0.150794 -0.093635 -0.435397
v -0.150794 -0.093635 -0.425101
v -0.182960 -0.112456 -0.425101
v -0.155994 -0.084748 -0.425101
v -0.188160 -0.103569 -0.425101
v -0.183350 0.112074 -0.430640
v -0.151030 0.093534 -0.431416
v -0.188476 0.103158 -0.431145
v -0.156156 0.084619 -0.431921
v -0.156222 0.084074 -0.421639
v -0.188542 0.102613 -0.420863
v -0.151096 0.092989 -0.421134
v -0.183415 0.111528 -0.420358
v -0.101174 0.189582 -0.430640
v -0.082723 0.157212 -0.431416
v -0.110114 0.184498 -0.431145
v -0.091663 0.152128 -0.431921
v -0.091996 0.151692 -0.421639
v -0.110447 0.184062 -0.420863
v -0.083056 0.156775 -0.421134
v -0.101508 0.189146 -0.420358
v 0.216372 -0.008915 -0.443000
v 0.153446 -0.008992 -0.443000
v 0.216351 0.008470 -0.443000
v 0.153425 0.008394 -0.443000
v 0.153425 0.008394 -0.425615
v 0.216351 0.008470 -0.425615
v 0.153446 -0.008992 -0.425615
v 0.216372 -0.008915 -0.425615
v -0.006258 -0.216466 -0.443000
v -0.007107 -0.153545 -0.443000
v 0.011126 -0.216231 -0.443000
v 0.010277 -0.153310 -0.443000
v 0.010277 -0.153310 -0.425615
v 0.011126 -0.216231 -0.425615
v -0.007107 -0.153545 -0.425615
v -0.006258 -0.216466 -0.425615
v -0.216430 0.007397 -0.443000
v -0.153505 0.007915 -0.443000
v -0.216287 -0.009988 -0.443000
v -0.153362 -0.009470 -0.443000
v -0.153362 -0.009470 -0.425615
v -0.216286 -0.009988 -0.425615
v -0.153505 0.007915 -0.425615
v -0.216430 0.007397 -0.425615
vt 0.275391 0.037109
vt 0.275391 0.037109
vt 0.275391 0.037109
vt 0.275391 0.037109
vt 0.275391 0.037109
vt 0.275391 0.037109
vt 0.275391 0.037109
vt 0.275391 0.037109
vt 0.275391 0.037109
vt 0.275391 0.037109
vt 0.275391 0.037109
vt 0.275391 0.037109
vt 0.275391 0.037109
vt 0.275391 0.037109
vt 0.275391 0.037109
vt 0.275391 0.037109
vt 0.275391 0.037109
vt 0.275391 0.037109
vt 0.275391 0.037109
vt 0.275391 0.037109
vt 0.406250 0.072266
vt 0.406250 0.072266
vt 0.406250 0.072266
vt 0.275391 0.037109
vt 0.275391 0.037109
vt 0.341797 0.070313
vt 0.341797 0.070313
vt 0.341797 0.070313
vt 0.316406 0.033203
vt 0.316406 0.033203
vt 0.316406 0.033203
vt 0.316406 0.033203
vt 0.316406 0.033203
vt 0.316406 0.033203
vt 0.316406 0.033203
vt 0.316406 0.033203
vt 0.316406 0.033203
vt 0.316406 0.033203
vt 0.316406 0.033203
vt 0.316406 0.033203
vt 0.316406 0.033203
vt 0.316406 0.033203
vt 0.316406 0.033203
vt 0.316406 0.033203
vt 0.316406 0.033203
vt 0.316406 0.033203
vt 0.316406 0.033203
vt 0.316406 0.033203
vt 0.316406 0.033203
vt 0.316406 0.033203
vt 0.316406 0.033203
vt 0.316406 0.033203
vt 0.802734 0.906250
vt 0.802734 0.906250
vt 0.802734 0.906250
vt 0.406250 0.072266
vt 0.406250 0.072266
vt 0.406250 0.072266
vt 0.406250 0.072266
vt 0.406250 0.072266
vt 0.406250 0.072266
vt 0.406250 0.072266
vt 0.406250 0.072266
vt 0.406250 0.072266
vt 0.406250 0.072266
vt 0.406250 0.072266
vt 0.406250 0.072266
vt 0.406250 0.072266
vt 0.406250 0.072266
vt 0.406250 0.072266
vt 0.406250 0.072266
vt 0.406250 0.072266
vt 0.406250 0.072266
vt 0.406250 0.072266
vt 0.406250 0.072266
vt 0.406250 0.072266
vt 0.179687 0.917969
vt 0.179687 0.917969
vt 0.179687 0.917969
vt 0.179687 0.917969
vt 0.179687 0.917969
vt 0.179687 0.917969
vt 0.179687 0.917969
vt 0.179687 0.917969
vt 0.179687 0.917969
vt 0.179687 0.917969
vt 0.179687 0.917969
vt 0.179687 0.917969
vt 0.179687 0.917969
vt 0.179687 0.917969
vt 0.179687 0.917969
vt 0.179687 0.917969
vt 0.179687 0.917969
vt 0.179687 0.917969
vt 0.179687 0.917969
vt 0.179687 0.917969
vt 0.179687 0.917969
vt 0.179687 0.917969
vt 0.179687 0.917969
vt 0.179687 0.917969
vt 0.804687 0.908203
vt 0.804687 0.908203
vt 0.804687 0.908203
vt 0.802734 0.906250
vt 0.802734 0.906250
vt 0.802734 0.906250
vt 0.802734 0.906250
vt 0.802734 0.906250
vt 0.802734 0.906250
vt 0.802734 0.906250
vt 0.802734 0.906250
vt 0.802734 0.906250
vt 0.802734 0.906250
vt 0.802734 0.906250
vt 0.802734 0.906250
vt 0.802734 0.906250
vt 0.802734 0.906250
vt 0.802734 0.906250
vt 0.802734 0.906250
vt 0.802734 0.906250
vt 0.802734 0.906250
vt 0.802734 0.906250
vt 0.802734 0.906250
vt 0.802734 0.906250
vt 0.671875 0.916016
vt 0.671875 0.916016
vt 0.671875 0.916016
vt 0.671875 0.916016
vt 0.671875 0.916016
vt 0.671875 0.916016
vt 0.671875 0.916016
vt 0.671875 0.916016
vt 0.816406 0.937500
vt 0.816406 0.937500
vt 0.816406 0.937500
vt 0.662109 0.937500
vt 0.662109 0.937500
vt 0.662109 0.937500
vt 0.662109 0.937500
vt 0.662109 0.937500
vt 0.662109 0.937500
vt 0.662109 0.937500
vt 0.662109 0.937500
vt 0.816406 0.937500
vt 0.816406 0.937500
vt 0.816406 0.937500
vt 0.816406 0.937500
vt 0.816406 0.937500
vt 0.816406 0.937500
vt 0.816406 0.937500
vt 0.816406 0.937500
vt 0.816406 0.937500
vt 0.816406 0.937500
vt 0.816406 0.937500
vt 0.816406 0.937500
vt 0.816406 0.937500
vt 0.816406 0.937500
vt 0.816406 0.937500
vt 0.816406 0.937500
vt 0.816406 0.937500
vt 0.816406 0.937500
vt 0.816406 0.937500
vt 0.816406 0.937500
vt 0.816406 0.937500
vt 0.816406 0.937500
vt 0.816406 0.937500
vt 0.816406 0.937500
vt 0.816406 0.937500
vt 0.816406 0.937500
vt 0.816406 0.937500
vt 0.816406 0.937500
vt 0.816406 0.937500
vt 0.816406 0.937500
vt 0.816406 0.937500
vt 0.816406 0.937500
vt 0.816406 0.937500
vt 0.816406 0.937500
vt 0.816406 0.937500
vt 0.816406 0.937500
vt 0.816406 0.937500
vt 0.816406 0.937500
vt 0.816406 0.937500
vt 0.816406 0.937500
vt 0.816406 0.937500
vt 0.816406 0.937500
vt 0.816406 0.937500
vt 0.816406 0.937500
vt 0.816406 0.937500
vt 0.816406 0.937500
vt 0.816406 0.937500
vt 0.816406 0.937500
vt 0.816406 0.937500
vt 0.816406 0.937500
vt 0.816406 0.937500
vt 0.816406 0.937500
vt 0.816406 0.937500
vt 0.816406 0.937500
vt 0.816406 0.937500
vt 0.816406 0.937500
vt 0.816406 0.937500
vt 0.816406 0.937500
vt 0.816406 0.937500
vt 0.816406 0.937500
vt 0.816406 0.937500
vt 0.816406 0.937500
vt 0.816406 0.937500
vt 0.816406 0.937500
vt 0.816406 0.937500
vt 0.816406 0.937500
vt 0.816406 0.937500
vt 0.816406 0.937500
vt 0.816406 0.937500
vt 0.816406 0.937500
vt 0.816406 0.937500
vt 0.816406 0.937500
vt 0.816406 0.937500
vt 0.816406 0.937500
vt 0.816406 0.937500
vt 0.816406 0.937500
vt 0.816406 0.937500
vt 0.816406 0.937500
vt 0.816406 0.937500
vt 0.816406 0.937500
vt 0.816406 0.937500
vt 0.816406 0.937500
vt 0.816406 0.937500
vt 0.816406 0.937500
vt 0.816406 0.937500
vt 0.816406 0.937500
vt 0.275391 0.037109
vt 0.275391 0.037109
vt 0.341797 0.070313
vt 0.341797 0.070313
vt 0.341797 0.070313
vt 0.341797 0.070313
vt 0.341797 0.070313
vt 0.341797 0.070313
vt 0.341797 0.070313
vt 0.341797 0.070313
vt 0.341797 0.070313
vt 0.804687 0.908203
vt 0.804687 0.908203
vt 0.804687 0.908203
vt 0.804687 0.908203
vt 0.804687 0.908203
vt 0.804687 0.908203
vt 0.804687 0.908203
vt 0.804687 0.908203
vt 0.804687 0.908203
vt 0.816406 0.937500
vt 0.816406 0.937500
vt 0.816406 0.937500
vt 0.816406 0.937500
vt 0.816406 0.937500
vt 0.816406 0.937500
vt 0.816406 0.937500
vn 0.9659 -0.2588 0.0000
vn 0.7071 -0.7071 0.0000
vn 0.2588 -0.9659 0.0000
vn -0.2588 -0.9659 0.0000
vn -0.7071 -0.7071 0.0000
vn -0.9659 -0.2588 0.0000
vn -0.9659 0.2588 -0.0000
vn -0.7071 0.7071 0.0000
vn -0.2588 0.9659 0.0000
vn 0.2588 0.9659 -0.0000
vn 0.7071 0.7071 -0.0000
vn 0.9659 0.2588 -0.0000
vn -0.0000 -0.0000 -1.0000
vn 0.0000 0.0000 1.0000
vn 0.0000 -0.0115 0.9999
vn -0.9998 -0.0199 -0.0000
vn 0.0000 -0.0115 -0.9999
vn 0.9998 -0.0199 -0.0000
vn 0.0000 -1.0000 -0.0000
vn 0.0000 1.0000 0.0000
vn 0.0389 0.0000 -0.9992
vn 1.0000 0.0000 0.0000
vn 0.0389 -0.0000 0.9992
vn -1.0000 0.0000 0.0000
vn 0.0389 -0.9992 -0.0000
vn 0.0389 0.9992 0.0000
vn 0.8645 -0.5026 0.0000
vn -0.8645 0.5026 -0.0000
vn -0.5026 -0.8645 -0.0000
vn 0.5026 0.8645 0.0000
vn 0.4962 -0.8682 0.0000
vn -0.4962 0.8682 0.0000
vn -0.8682 -0.4962 -0.0000
vn 0.8682 0.4962 0.0000
vn -0.4957 -0.8685 0.0000
vn 0.4957 0.8685 0.0000
vn -0.8685 0.4957 -0.0000
vn 0.8685 -0.4957 0.0000
vn -0.8613 -0.5081 0.0000
vn 0.8613 0.5081 -0.0000
vn -0.5081 0.8613 0.0000
vn 0.5081 -0.8613 0.0000
vn -0.8668 0.4986 0.0000
vn 0.8668 -0.4986 0.0000
vn 0.4986 0.8668 -0.0000
vn -0.4986 -0.8668 0.0000
vn -0.5050 0.8631 0.0000
vn 0.5050 -0.8631 -0.0000
vn 0.8631 0.5050 0.0000
vn -0.8631 -0.5050 0.0000
vn 0.0064 0.0530 -0.9986
vn 0.4979 0.8659 0.0491
vn -0.0064 -0.0530 0.9986
vn -0.4979 -0.8659 -0.0491
vn 0.8672 -0.4975 -0.0208
vn -0.8672 0.4975 0.0208
vn 0.0324 0.0424 -0.9986
vn 0.8682 0.4937 0.0491
vn -0.0324 -0.0424 0.9986
vn -0.8682 -0.4937 -0.0491
vn 0.4951 -0.8686 -0.0208
vn -0.4951 0.8686 0.0208
vn 0.0012 -1.0000 0.0000
vn -0.0012 1.0000 -0.0000
vn -1.0000 -0.0012 -0.0000
vn 1.0000 0.0012 0.0000
vn -0.9999 -0.0135 0.0000
vn 0.9999 0.0135 -0.0000
vn -0.0135 0.9999 -0.0000
vn 0.0135 -0.9999 0.0000
vn -0.0082 1.0000 -0.0000
vn 0.0082 -1.0000 0.0000
vn 1.0000 0.0082 -0.0000
vn -1.0000 -0.0082 0.0000
vn 0.8669 -0.4986 0.0000
usemtl Material.008
s off
f 1/1/1 25/2/1 3/3/1
f 3/3/2 27/4/2 5/5/2
f 27/4/3 7/6/3 5/5/3
f 28/7/4 9/8/4 7/6/4
f 29/9/5 11/10/5 9/8/5
f 30/11/6 13/12/6 11/10/6
f 31/13/7 15/14/7 13/12/7
f 32/15/8 17/16/8 15/14/8
f 33/17/9 19/18/9 17/16/9
f 19/18/10 35/19/10 21/20/10
f 20/21/4 59/22/4 22/23/4
f 35/19/11 23/24/11 21/20/11
f 23/24/12 26/25/12 1/1/12
f 15/26/13 19/27/13 23/28/13
f 2/29/14 25/30/14 26/31/14
f 6/32/14 25/30/14 4/33/14
f 8/34/14 27/35/14 6/32/14
f 10/36/14 28/37/14 8/34/14
f 12/38/14 29/39/14 10/36/14
f 12/38/14 31/40/14 30/41/14
f 14/42/14 32/43/14 31/40/14
f 16/44/14 33/45/14 32/43/14
f 20/46/14 33/45/14 18/47/14
f 20/46/14 35/48/14 34/49/14
f 24/50/14 35/48/14 22/51/14
f 2/29/14 36/52/14 24/50/14
f 44/53/8 69/54/8 45/55/8
f 14/56/1 56/57/1 16/58/1
f 8/59/10 53/60/10 10/61/10
f 22/23/5 60/62/5 24/63/5
f 2/64/7 49/65/7 4/66/7
f 16/58/2 57/67/2 18/68/2
f 10/61/11 54/69/11 12/70/11
f 24/63/6 50/71/6 2/64/6
f 4/66/8 51/72/8 6/73/8
f 18/68/3 58/74/3 20/21/3
f 12/70/12 55/75/12 14/56/12
f 6/73/9 52/76/9 8/59/9
f 37/77/14 50/78/14 38/79/14
f 39/80/14 49/81/14 37/77/14
f 39/80/14 52/82/14 51/83/14
f 41/84/14 52/82/14 40/85/14
f 42/86/14 53/87/14 41/84/14
f 42/86/14 55/88/14 54/89/14
f 44/90/14 55/88/14 43/91/14
f 44/90/14 57/92/14 56/93/14
f 46/94/14 57/92/14 45/95/14
f 47/96/14 58/97/14 46/94/14
f 48/98/14 59/99/14 47/96/14
f 38/79/14 60/100/14 48/98/14
f 62/101/14 71/102/14 67/103/14
f 41/104/5 66/105/5 42/106/5
f 48/107/12 62/108/12 38/109/12
f 37/110/2 63/111/2 39/112/2
f 45/55/9 70/113/9 46/114/9
f 43/115/6 66/105/6 67/116/6
f 39/112/3 64/117/3 40/118/3
f 46/114/10 71/119/10 47/120/10
f 43/115/7 68/121/7 44/53/7
f 40/118/4 65/122/4 41/104/4
f 47/120/11 72/123/11 48/107/11
f 38/109/1 61/124/1 37/110/1
f 74/125/15 75/126/15 73/127/15
f 76/128/16 79/129/16 75/126/16
f 80/130/17 77/131/17 79/129/17
f 77/131/18 74/125/18 73/127/18
f 79/129/19 73/127/19 75/126/19
f 76/128/20 78/132/20 80/130/20
f 83/133/13 82/134/13 84/135/13
f 86/136/21 87/137/21 85/138/21
f 87/137/22 92/139/22 91/140/22
f 91/140/23 90/141/23 89/142/23
f 89/142/24 86/136/24 85/138/24
f 91/140/25 85/138/25 87/137/25
f 88/143/26 90/141/26 92/139/26
f 82/134/22 96/144/22 95/145/22
f 96/144/14 93/146/14 95/145/14
f 94/147/24 84/135/24 93/146/24
f 95/145/19 84/135/19 82/134/19
f 81/148/20 94/147/20 96/144/20
f 100/149/13 97/150/13 98/151/13
f 98/151/27 104/152/27 103/153/27
f 103/153/14 102/154/14 101/155/14
f 102/154/28 100/149/28 101/155/28
f 103/153/29 100/149/29 98/151/29
f 104/152/30 99/156/30 102/154/30
f 107/157/13 106/158/13 108/159/13
f 106/158/31 112/160/31 111/161/31
f 111/161/14 110/162/14 109/163/14
f 110/162/32 108/159/32 109/163/32
f 106/158/33 109/163/33 108/159/33
f 112/160/34 107/157/34 110/162/34
f 115/164/13 114/165/13 116/166/13
f 114/165/35 120/167/35 119/168/35
f 120/167/14 117/169/14 119/168/14
f 118/170/36 116/166/36 117/169/36
f 119/168/37 116/166/37 114/165/37
f 113/171/38 118/170/38 120/167/38
f 124/172/13 121/173/13 122/174/13
f 122/174/39 128/175/39 127/176/39
f 127/176/14 126/177/14 125/178/14
f 126/177/40 124/172/40 125/178/40
f 127/176/41 124/172/41 122/174/41
f 128/175/42 123/179/42 126/177/42
f 132/180/13 129/181/13 130/182/13
f 130/182/43 136/183/43 135/184/43
f 135/184/14 134/185/14 133/186/14
f 134/185/44 132/180/44 133/186/44
f 130/182/45 133/186/45 132/180/45
f 129/181/46 134/185/46 136/183/46
f 140/187/13 137/188/13 138/189/13
f 138/189/47 144/190/47 143/191/47
f 143/191/14 142/192/14 141/193/14
f 142/192/48 140/187/48 141/193/48
f 143/191/49 140/187/49 138/189/49
f 137/188/50 142/192/50 144/190/50
f 148/194/51 145/195/51 146/196/51
f 146/196/52 152/197/52 151/198/52
f 151/198/53 150/199/53 149/200/53
f 150/199/54 148/194/54 149/200/54
f 146/196/55 149/200/55 148/194/55
f 145/195/56 150/199/56 152/197/56
f 156/201/57 153/202/57 154/203/57
f 154/203/58 160/204/58 159/205/58
f 160/204/59 157/206/59 159/205/59
f 158/207/60 156/201/60 157/206/60
f 154/203/61 157/206/61 156/201/61
f 153/202/62 158/207/62 160/204/62
f 163/208/13 162/209/13 164/210/13
f 162/209/63 168/211/63 167/212/63
f 168/211/14 165/213/14 167/212/14
f 166/214/64 164/210/64 165/213/64
f 167/212/65 164/210/65 162/209/65
f 161/215/66 166/214/66 168/211/66
f 172/216/13 169/217/13 170/218/13
f 170/218/67 176/219/67 175/220/67
f 176/219/14 173/221/14 175/220/14
f 174/222/68 172/216/68 173/221/68
f 175/220/69 172/216/69 170/218/69
f 169/217/70 174/222/70 176/219/70
f 180/223/13 177/224/13 178/225/13
f 178/225/71 184/226/71 183/227/71
f 184/226/14 181/228/14 183/227/14
f 182/229/72 180/223/72 181/228/72
f 183/227/73 180/223/73 178/225/73
f 177/224/74 182/229/74 184/226/74
f 1/1/1 26/25/1 25/2/1
f 3/3/2 25/2/2 27/4/2
f 27/4/3 28/7/3 7/6/3
f 28/7/4 29/9/4 9/8/4
f 29/9/5 30/11/5 11/10/5
f 30/11/6 31/13/6 13/12/6
f 31/13/7 32/15/7 15/14/7
f 32/15/8 33/17/8 17/16/8
f 33/17/9 34/230/9 19/18/9
f 19/18/10 34/230/10 35/19/10
f 20/21/4 58/74/4 59/22/4
f 35/19/11 36/231/11 23/24/11
f 23/24/12 36/231/12 26/25/12
f 23/28/13 1/232/13 3/233/13
f 3/233/13 5/234/13 23/28/13
f 5/234/13 7/235/13 23/28/13
f 7/235/13 9/236/13 11/237/13
f 11/237/13 13/238/13 15/26/13
f 15/26/13 17/239/13 19/27/13
f 19/27/13 21/240/13 23/28/13
f 7/235/13 11/237/13 23/28/13
f 11/237/13 15/26/13 23/28/13
f 2/29/14 4/33/14 25/30/14
f 6/32/14 27/35/14 25/30/14
f 8/34/14 28/37/14 27/35/14
f 10/36/14 29/39/14 28/37/14
f 12/38/14 30/41/14 29/39/14
f 12/38/14 14/42/14 31/40/14
f 14/42/14 16/44/14 32/43/14
f 16/44/14 18/47/14 33/45/14
f 20/46/14 34/49/14 33/45/14
f 20/46/14 22/51/14 35/48/14
f 24/50/14 36/52/14 35/48/14
f 2/29/14 26/31/14 36/52/14
f 44/53/8 68/121/8 69/54/8
f 14/56/1 55/75/1 56/57/1
f 8/59/10 52/76/10 53/60/10
f 22/23/5 59/22/5 60/62/5
f 2/64/7 50/71/7 49/65/7
f 16/58/2 56/57/2 57/67/2
f 10/61/11 53/60/11 54/69/11
f 24/63/6 60/62/6 50/71/6
f 4/66/8 49/65/8 51/72/8
f 18/68/3 57/67/3 58/74/3
f 12/70/12 54/69/12 55/75/12
f 6/73/9 51/72/9 52/76/9
f 37/77/14 49/81/14 50/78/14
f 39/80/14 51/83/14 49/81/14
f 39/80/14 40/85/14 52/82/14
f 41/84/14 53/87/14 52/82/14
f 42/86/14 54/89/14 53/87/14
f 42/86/14 43/91/14 55/88/14
f 44/90/14 56/93/14 55/88/14
f 44/90/14 45/95/14 57/92/14
f 46/94/14 58/97/14 57/92/14
f 47/96/14 59/99/14 58/97/14
f 48/98/14 60/100/14 59/99/14
f 38/79/14 50/78/14 60/100/14
f 63/241/14 61/242/14 62/101/14
f 62/101/14 72/243/14 71/102/14
f 71/102/14 70/244/14 67/103/14
f 70/244/14 69/245/14 67/103/14
f 69/245/14 68/246/14 67/103/14
f 67/103/14 66/247/14 65/248/14
f 65/248/14 64/249/14 67/103/14
f 64/249/14 63/241/14 67/103/14
f 63/241/14 62/101/14 67/103/14
f 41/104/5 65/122/5 66/105/5
f 48/107/12 72/123/12 62/108/12
f 37/110/2 61/124/2 63/111/2
f 45/55/9 69/54/9 70/113/9
f 43/115/6 42/106/6 66/105/6
f 39/112/3 63/111/3 64/117/3
f 46/114/10 70/113/10 71/119/10
f 43/115/7 67/116/7 68/121/7
f 40/118/4 64/117/4 65/122/4
f 47/120/11 71/119/11 72/123/11
f 38/109/1 62/108/1 61/124/1
f 74/125/15 76/128/15 75/126/15
f 76/128/16 80/130/16 79/129/16
f 80/130/17 78/132/17 77/131/17
f 77/131/18 78/132/18 74/125/18
f 79/129/19 77/131/19 73/127/19
f 76/128/20 74/125/20 78/132/20
f 83/133/13 81/148/13 82/134/13
f 86/136/21 88/143/21 87/137/21
f 87/137/22 88/143/22 92/139/22
f 91/140/23 92/139/23 90/141/23
f 89/142/24 90/141/24 86/136/24
f 91/140/25 89/142/25 85/138/25
f 88/143/26 86/136/26 90/141/26
f 82/134/22 81/148/22 96/144/22
f 96/144/14 94/147/14 93/146/14
f 94/147/24 83/133/24 84/135/24
f 95/145/19 93/146/19 84/135/19
f 81/148/20 83/133/20 94/147/20
f 100/149/13 99/156/13 97/150/13
f 98/151/27 97/150/27 104/152/27
f 103/153/14 104/152/14 102/154/14
f 102/154/28 99/156/28 100/149/28
f 103/153/29 101/155/29 100/149/29
f 104/152/30 97/150/30 99/156/30
f 107/157/13 105/250/13 106/158/13
f 106/158/31 105/250/31 112/160/31
f 111/161/14 112/160/14 110/162/14
f 110/162/32 107/157/32 108/159/32
f 106/158/33 111/161/33 109/163/33
f 112/160/34 105/250/34 107/157/34
f 115/164/13 113/171/13 114/165/13
f 114/165/35 113/171/35 120/167/35
f 120/167/14 118/170/14 117/169/14
f 118/170/36 115/164/36 116/166/36
f 119/168/37 117/169/37 116/166/37
f 113/171/38 115/164/38 118/170/38
f 124/172/13 123/179/13 121/173/13
f 122/174/39 121/173/39 128/175/39
f 127/176/14 128/175/14 126/177/14
f 126/177/40 123/179/40 124/172/40
f 127/176/41 125/178/41 124/172/41
f 128/175/42 121/173/42 123/179/42
f 132/180/13 131/251/13 129/181/13
f 130/182/43 129/181/43 136/183/43
f 135/184/14 136/183/14 134/185/14
f 134/185/75 131/251/75 132/180/75
f 130/182/45 135/184/45 133/186/45
f 129/181/46 131/251/46 134/185/46
f 140/187/13 139/252/13 137/188/13
f 138/189/47 137/188/47 144/190/47
f 143/191/14 144/190/14 142/192/14
f 142/192/48 139/252/48 140/187/48
f 143/191/49 141/193/49 140/187/49
f 137/188/50 139/252/50 142/192/50
f 148/194/51 147/253/51 145/195/51
f 146/196/52 145/195/52 152/197/52
f 151/198/53 152/197/53 150/199/53
f 150/199/54 147/253/54 148/194/54
f 146/196/55 151/198/55 149/200/55
f 145/195/56 147/253/56 150/199/56
f 156/201/57 155/254/57 153/202/57
f 154/203/58 153/202/58 160/204/58
f 160/204/59 158/207/59 157/206/59
f 158/207/60 155/254/60 156/201/60
f 154/203/61 159/205/61 157/206/61
f 153/202/62 155/254/62 158/207/62
f 163/208/13 161/215/13 162/209/13
f 162/209/63 161/215/63 168/211/63
f 168/211/14 166/214/14 165/213/14
f 166/214/64 163/208/64 164/210/64
f 167/212/65 165/213/65 164/210/65
f 161/215/66 163/208/66 166/214/66
f 172/216/13 171/255/13 169/217/13
f 170/218/67 169/217/67 176/219/67
f 176/219/14 174/222/14 173/221/14
f 174/222/68 171/255/68 172/216/68
f 175/220/69 173/221/69 172/216/69
f 169/217/70 171/255/70 174/222/70
f 180/223/13 179/256/13 177/224/13
f 178/225/71 177/224/71 184/226/71
f 184/226/14 182/229/14 181/228/14
f 182/229/72 179/256/72 180/223/72
f 183/227/73 181/228/73 180/223/73
f 177/224/74 179/256/74 182/229/74
