# Blender v2.82 (sub 7) OBJ File: 'startup_file.blend'
# www.blender.org
mtllib fridge.mtl
o fridge_Cube.003
v 0.878765 0.921517 0.632405
v 0.878765 0.069607 0.632405
v 0.145121 0.921517 0.632405
v 0.145121 0.069607 0.632405
v 0.145121 0.069607 0.658275
v 0.145121 0.921517 0.658275
v 0.878765 0.921517 0.658275
v 0.878765 0.069607 0.658275
v 0.922430 0.972222 -0.063119
v 0.922430 0.995411 -0.043149
v 0.942400 0.972222 -0.043149
v 0.922430 -0.004287 -0.043149
v 0.922430 0.018902 -0.063119
v 0.942400 0.018902 -0.043149
v 0.101455 0.972222 -0.063119
v 0.081486 0.972222 -0.043149
v 0.101455 0.995411 -0.043149
v 0.081486 0.018902 -0.043149
v 0.101455 0.018902 -0.063119
v 0.101455 -0.004287 -0.043149
v 0.101455 -0.004287 0.612435
v 0.101455 0.018902 0.632405
v 0.081486 0.018902 0.612435
v 0.101455 0.972222 0.632405
v 0.101455 0.995411 0.612435
v 0.081486 0.972222 0.612435
v 0.942400 0.972222 0.612435
v 0.922430 0.995411 0.612435
v 0.922430 0.972222 0.632405
v 0.922430 0.018902 0.632405
v 0.922430 -0.004287 0.612435
v 0.942400 0.018902 0.612435
v 0.090305 0.029143 0.678245
v 0.110275 0.029143 0.658275
v 0.110275 0.005954 0.678245
v 0.090305 0.961981 0.678245
v 0.110275 0.985170 0.678245
v 0.110275 0.961981 0.658275
v 0.933581 0.961981 0.678245
v 0.913611 0.961981 0.658275
v 0.913611 0.985170 0.678245
v 0.933581 0.029143 0.678245
v 0.913611 0.005954 0.678245
v 0.913611 0.029143 0.658275
v 0.090305 0.029143 0.719051
v 0.110275 0.005954 0.719051
v 0.793984 0.702837 0.739021
v 0.090305 0.961981 0.719051
v 0.793984 0.738778 0.739021
v 0.110275 0.985170 0.719051
v 0.933581 0.961981 0.719051
v 0.913611 0.985170 0.719051
v 0.824935 0.738778 0.739021
v 0.933581 0.029143 0.719051
v 0.824935 0.702837 0.739021
v 0.913611 0.005954 0.719051
v 0.110275 0.029143 0.739021
v 0.110275 0.961981 0.739021
v 0.913611 0.961981 0.739021
v 0.913611 0.029143 0.739021
v 0.793984 0.702837 0.785345
v 0.793984 0.738778 0.785345
v 0.824935 0.738778 0.785345
v 0.824935 0.702837 0.785345
v 0.824935 0.702837 0.758941
v 0.793984 0.702837 0.758941
v 0.824935 0.738778 0.758941
v 0.793984 0.738778 0.758941
v 0.718020 0.702837 0.785345
v 0.718020 0.738778 0.785345
v 0.718020 0.738778 0.758941
v 0.718020 0.702837 0.758941
vt 0.182559 0.893725
vt 0.182559 0.893725
vt 0.182559 0.893725
vt 0.814980 0.933098
vt 0.814980 0.933098
vt 0.814980 0.933098
vt 0.182559 0.893725
vt 0.182559 0.893725
vt 0.182559 0.893725
vt 0.182559 0.893725
vt 0.182559 0.893725
vt 0.182559 0.893725
vt 0.182559 0.893725
vt 0.182559 0.893725
vt 0.182559 0.893725
vt 0.182559 0.893725
vt 0.182559 0.893725
vt 0.182559 0.893725
vt 0.182559 0.893725
vt 0.182559 0.893725
vt 0.182559 0.893725
vt 0.182559 0.893725
vt 0.182559 0.893725
vt 0.182559 0.893725
vt 0.182559 0.893725
vt 0.182559 0.893725
vt 0.834666 0.910951
vt 0.834666 0.910951
vt 0.834666 0.910951
vt 0.814980 0.933098
vt 0.814980 0.933098
vt 0.814980 0.933098
vt 0.814980 0.933098
vt 0.814980 0.933098
vt 0.182559 0.893725
vt 0.182559 0.893725
vt 0.182559 0.893725
vt 0.182559 0.893725
vt 0.182559 0.893725
vt 0.182559 0.893725
vt 0.182559 0.893725
vt 0.182559 0.893725
vt 0.182559 0.893725
vt 0.182559 0.893725
vt 0.182559 0.893725
vt 0.182559 0.893725
vt 0.182559 0.893725
vt 0.182559 0.893725
vt 0.182559 0.893725
vt 0.182559 0.893725
vt 0.182559 0.893725
vt 0.182559 0.893725
vt 0.182559 0.893725
vt 0.182559 0.893725
vt 0.182559 0.893725
vt 0.182559 0.893725
vt 0.182559 0.893725
vt 0.182559 0.893725
vt 0.182559 0.893725
vt 0.182559 0.893725
vt 0.182559 0.893725
vt 0.182559 0.893725
vt 0.182559 0.893725
vt 0.182559 0.893725
vt 0.182559 0.893725
vt 0.182559 0.893725
vt 0.182559 0.893725
vt 0.182559 0.893725
vt 0.182559 0.893725
vt 0.182559 0.893725
vt 0.182559 0.893725
vt 0.834666 0.910951
vt 0.834666 0.910951
vt 0.834666 0.910951
vt 0.834666 0.910951
vt 0.834666 0.910951
vt 0.834666 0.910951
vt 0.834666 0.910951
vt 0.834666 0.910951
vt 0.834666 0.910951
vt 0.834666 0.910951
vt 0.834666 0.910951
vt 0.834666 0.910951
vt 0.834666 0.910951
vt 0.182559 0.893725
vt 0.182559 0.893725
vt 0.182559 0.893725
vt 0.182559 0.893725
vn 0.0000 -1.0000 -0.0000
vn -0.0000 0.0000 1.0000
vn -1.0000 0.0000 0.0000
vn 0.0000 1.0000 0.0000
vn 1.0000 0.0000 0.0000
vn 0.0000 0.0000 -1.0000
vn 0.6039 0.5201 -0.6039
vn 0.6039 -0.5201 -0.6039
vn -0.6039 0.5201 -0.6039
vn -0.6039 -0.5201 -0.6039
vn -0.6039 -0.5201 0.6039
vn -0.6039 0.5201 0.6039
vn 0.6039 0.5201 0.6039
vn 0.6039 -0.5201 0.6039
vn -0.7577 -0.6526 0.0000
vn 0.0000 -0.6525 -0.7577
vn 0.7071 0.0000 -0.7071
vn -0.7071 0.0000 0.7071
vn 0.7071 0.0000 0.7071
vn -0.7071 0.0000 -0.7071
vn 0.0000 0.6526 0.7577
vn 0.7577 0.6526 -0.0000
vn 0.0000 -0.6525 0.7577
vn -0.7577 0.6526 0.0000
vn 0.0000 0.6526 -0.7577
vn 0.7577 -0.6526 -0.0000
vn 0.0000 -0.6526 -0.7577
vn 0.0000 0.6525 0.7577
vn -0.7577 0.6525 0.0000
vn 0.0000 -0.6526 0.7577
vn 0.0000 0.6525 -0.7577
usemtl Material.004
s off
f 12/1/1 21/2/1 20/3/1
f 2/4/1 5/5/1 4/6/1
f 3/7/2 22/8/2 4/9/2
f 26/10/3 18/11/3 23/12/3
f 10/13/4 25/14/4 28/15/4
f 11/16/5 32/17/5 14/18/5
f 4/9/2 30/19/2 2/20/2
f 33/21/3 48/22/3 36/23/3
f 2/20/2 29/24/2 1/25/2
f 1/25/2 24/26/2 3/7/2
f 65/27/1 61/28/1 66/29/1
f 1/30/5 8/31/5 2/4/5
f 3/32/4 7/33/4 1/30/4
f 4/6/3 6/34/3 3/32/3
f 39/35/5 54/36/5 42/37/5
f 37/38/4 52/39/4 41/40/4
f 43/41/1 46/42/1 35/43/1
f 6/44/6 40/45/6 7/46/6
f 6/44/6 34/47/6 38/48/6
f 5/49/6 44/50/6 34/47/6
f 7/46/6 44/50/6 8/51/6
f 9/52/7 10/13/7 11/16/7
f 12/1/8 13/53/8 14/18/8
f 15/54/9 16/55/9 17/56/9
f 18/11/10 19/57/10 20/3/10
f 21/2/11 22/8/11 23/12/11
f 24/26/12 25/14/12 26/10/12
f 27/58/13 28/15/13 29/24/13
f 30/19/14 31/59/14 32/17/14
f 33/21/10 34/47/10 35/43/10
f 36/23/9 37/38/9 38/48/9
f 39/35/7 40/45/7 41/40/7
f 42/37/8 43/41/8 44/50/8
f 45/60/11 46/42/11 57/61/11
f 48/22/12 58/62/12 50/63/12
f 51/64/13 52/39/13 59/65/13
f 54/36/14 60/66/14 56/67/14
f 21/2/15 18/11/15 20/3/15
f 20/3/16 13/53/16 12/1/16
f 14/18/17 9/52/17 11/16/17
f 24/26/18 23/12/18 22/8/18
f 30/19/19 27/58/19 29/24/19
f 19/57/20 16/55/20 15/54/20
f 25/14/21 29/24/21 28/15/21
f 28/15/22 11/16/22 10/13/22
f 31/59/23 22/8/23 21/2/23
f 17/56/24 26/10/24 25/14/24
f 10/13/25 15/54/25 17/56/25
f 12/1/26 32/17/26 31/59/26
f 36/23/20 34/47/20 33/21/20
f 42/37/17 40/45/17 39/35/17
f 38/48/25 41/40/25 40/45/25
f 44/50/27 35/43/27 34/47/27
f 58/62/18 45/60/18 57/61/18
f 60/66/19 51/64/19 59/65/19
f 50/63/28 59/65/28 52/39/28
f 56/67/23 57/61/23 46/42/23
f 48/22/29 37/38/29 36/23/29
f 39/35/22 52/39/22 51/64/22
f 46/42/15 33/21/15 35/43/15
f 54/36/26 43/41/26 42/37/26
f 15/54/6 13/53/6 19/57/6
f 47/68/2 58/62/2 57/61/2
f 55/69/2 59/65/2 53/70/2
f 49/71/2 59/65/2 58/62/2
f 47/68/2 60/66/2 55/69/2
f 63/72/2 61/28/2 64/73/2
f 67/74/5 64/73/5 65/27/5
f 68/75/4 63/72/4 67/74/4
f 62/76/2 69/77/2 61/28/2
f 47/78/3 68/75/3 49/79/3
f 49/79/4 67/74/4 53/80/4
f 53/80/5 65/27/5 55/81/5
f 55/81/1 66/29/1 47/78/1
f 72/82/3 70/83/3 71/84/3
f 61/28/1 72/82/1 66/29/1
f 68/75/4 70/83/4 62/76/4
f 66/85/6 71/86/6 68/87/6
f 12/1/1 31/59/1 21/2/1
f 2/4/1 8/31/1 5/5/1
f 3/7/2 24/26/2 22/8/2
f 26/10/3 16/55/3 18/11/3
f 10/13/4 17/56/4 25/14/4
f 11/16/5 27/58/5 32/17/5
f 4/9/2 22/8/2 30/19/2
f 33/21/3 45/60/3 48/22/3
f 2/20/2 30/19/2 29/24/2
f 1/25/2 29/24/2 24/26/2
f 65/27/1 64/73/1 61/28/1
f 1/30/5 7/33/5 8/31/5
f 3/32/4 6/34/4 7/33/4
f 4/6/3 5/5/3 6/34/3
f 39/35/5 51/64/5 54/36/5
f 37/38/4 50/63/4 52/39/4
f 43/41/1 56/67/1 46/42/1
f 6/44/6 38/48/6 40/45/6
f 6/44/6 5/49/6 34/47/6
f 5/49/6 8/51/6 44/50/6
f 7/46/6 40/45/6 44/50/6
f 21/2/15 23/12/15 18/11/15
f 20/3/27 19/57/27 13/53/27
f 14/18/17 13/53/17 9/52/17
f 24/26/18 26/10/18 23/12/18
f 30/19/19 32/17/19 27/58/19
f 19/57/20 18/11/20 16/55/20
f 25/14/21 24/26/21 29/24/21
f 28/15/22 27/58/22 11/16/22
f 31/59/30 30/19/30 22/8/30
f 17/56/24 16/55/24 26/10/24
f 10/13/25 9/52/25 15/54/25
f 12/1/26 14/18/26 32/17/26
f 36/23/20 38/48/20 34/47/20
f 42/37/17 44/50/17 40/45/17
f 38/48/31 37/38/31 41/40/31
f 44/50/27 43/41/27 35/43/27
f 58/62/18 48/22/18 45/60/18
f 60/66/19 54/36/19 51/64/19
f 50/63/28 58/62/28 59/65/28
f 56/67/23 60/66/23 57/61/23
f 48/22/24 50/63/24 37/38/24
f 39/35/22 41/40/22 52/39/22
f 46/42/15 45/60/15 33/21/15
f 54/36/26 56/67/26 43/41/26
f 15/54/6 9/52/6 13/53/6
f 47/68/2 49/71/2 58/62/2
f 55/69/2 60/66/2 59/65/2
f 49/71/2 53/70/2 59/65/2
f 47/68/2 57/61/2 60/66/2
f 63/72/2 62/76/2 61/28/2
f 67/74/5 63/72/5 64/73/5
f 68/75/4 62/76/4 63/72/4
f 62/76/2 70/83/2 69/77/2
f 47/78/3 66/29/3 68/75/3
f 49/79/4 68/75/4 67/74/4
f 53/80/5 67/74/5 65/27/5
f 55/81/1 65/27/1 66/29/1
f 72/82/3 69/77/3 70/83/3
f 61/28/1 69/77/1 72/82/1
f 68/75/4 71/84/4 70/83/4
f 66/85/6 72/88/6 71/86/6
