# Blender v2.82 (sub 7) OBJ File: 'models.blend'
# www.blender.org
mtllib kitchen_cabinet_hanging.mtl
o kitchen_cabinet_hanging_Cube.014
v -0.500750 -0.139908 -0.496531
v -0.500750 0.495741 -0.496531
v 0.499250 -0.139908 -0.496531
v 0.499250 0.495741 -0.496531
v -0.460100 -0.099259 0.230651
v -0.460100 0.455091 0.230651
v 0.458600 -0.099259 0.230651
v 0.458600 0.455091 0.230651
v 0.499250 0.495741 0.230651
v 0.499250 -0.139908 0.230651
v -0.500750 -0.139908 0.230651
v -0.500750 0.495741 0.230651
v 0.458600 0.455091 0.267286
v 0.458600 -0.099259 0.267286
v -0.460100 -0.099259 0.267286
v -0.460100 0.455091 0.267286
v 0.498009 0.494040 0.267286
v 0.498009 -0.138207 0.267286
v -0.499509 -0.138207 0.267286
v -0.499509 0.494040 0.267286
v 0.498009 0.494040 0.299374
v 0.498009 -0.138207 0.299374
v -0.499509 -0.138207 0.299374
v -0.499509 0.494040 0.299374
v 0.019420 -0.139908 -0.496531
v 0.019420 0.495741 -0.496531
v 0.019420 -0.139908 0.230651
v 0.019420 0.495741 0.230651
v 0.016674 -0.099259 0.230651
v 0.016674 0.455091 0.230651
v 0.016674 -0.099259 0.267286
v 0.016674 0.455091 0.267286
v 0.019337 -0.138207 0.267286
v 0.019337 0.494040 0.267286
v 0.019337 -0.138207 0.299374
v 0.019337 0.494040 0.299374
v -0.021201 -0.139908 -0.496531
v -0.021201 0.495741 0.230651
v -0.018353 0.455091 0.230651
v -0.018353 0.455091 0.267286
v -0.021114 0.494040 0.267286
v -0.021114 0.494040 0.299374
v -0.021201 0.495741 -0.496531
v -0.021201 -0.139908 0.230651
v -0.018353 -0.099259 0.230651
v -0.018353 -0.099259 0.267286
v -0.021114 -0.138207 0.267286
v -0.021114 -0.138207 0.299374
v -0.242124 0.136124 0.288254
v -0.242124 0.169893 0.288254
v -0.126841 0.136124 0.288254
v -0.126841 0.169893 0.288254
v -0.242124 0.136124 0.322023
v -0.242124 0.169893 0.322023
v -0.126841 0.136124 0.322023
v -0.126841 0.169893 0.322023
v 0.119712 0.136124 0.288254
v 0.119712 0.169893 0.288254
v 0.234995 0.136124 0.288254
v 0.234995 0.169893 0.288254
v 0.119712 0.136124 0.322023
v 0.119712 0.169893 0.322023
v 0.234995 0.136124 0.322023
v 0.234995 0.169893 0.322023
vt 0.809547 0.555807
vt 0.809547 0.555807
vt 0.809547 0.555807
vt 0.809547 0.555807
vt 0.809547 0.555807
vt 0.797145 0.943356
vt 0.797145 0.943356
vt 0.797145 0.943356
vt 0.809547 0.555807
vt 0.809547 0.555807
vt 0.809547 0.555807
vt 0.809547 0.555807
vt 0.809547 0.555807
vt 0.809547 0.555807
vt 0.809547 0.555807
vt 0.809547 0.555807
vt 0.809547 0.555807
vt 0.809547 0.555807
vt 0.809547 0.555807
vt 0.809547 0.555807
vt 0.809547 0.555807
vt 0.809547 0.555807
vt 0.809547 0.555807
vt 0.809547 0.555807
vt 0.809547 0.555807
vt 0.809547 0.555807
vt 0.797145 0.943356
vt 0.797145 0.943356
vt 0.797145 0.943356
vt 0.797145 0.943356
vt 0.797145 0.943356
vt 0.797145 0.943356
vt 0.797145 0.943356
vt 0.809547 0.555807
vt 0.809547 0.555807
vt 0.809547 0.555807
vt 0.809547 0.555807
vt 0.809547 0.555807
vt 0.809547 0.555807
vt 0.809547 0.555807
vt 0.809547 0.555807
vt 0.809547 0.555807
vt 0.809547 0.555807
vt 0.809547 0.555807
vt 0.809547 0.555807
vt 0.809547 0.555807
vt 0.809547 0.555807
vt 0.809547 0.555807
vt 0.809547 0.555807
vt 0.809547 0.555807
vt 0.843651 0.937155
vt 0.843651 0.937155
vt 0.843651 0.937155
vt 0.797145 0.943356
vt 0.797145 0.943356
vt 0.809547 0.555807
vt 0.809547 0.555807
vt 0.797145 0.943356
vt 0.797145 0.943356
vt 0.809547 0.555807
vt 0.797145 0.943356
vt 0.809547 0.555807
vt 0.797145 0.943356
vt 0.809547 0.555807
vt 0.809547 0.555807
vt 0.809547 0.555807
vt 0.843651 0.937155
vt 0.843651 0.937155
vt 0.843651 0.937155
vt 0.843651 0.937155
vt 0.843651 0.937155
vt 0.812647 0.965059
vt 0.812647 0.965059
vt 0.812647 0.965059
vt 0.812647 0.965059
vt 0.812647 0.965059
vt 0.812647 0.965059
vt 0.812647 0.965059
vt 0.812647 0.965059
vt 0.809547 0.555807
vn 0.0000 0.0000 -1.0000
vn 1.0000 0.0000 0.0000
vn 0.0000 1.0000 0.0000
vn -1.0000 0.0000 0.0000
vn 0.0000 -1.0000 0.0000
vn -0.0000 0.0000 1.0000
vn -0.9963 0.0000 -0.0857
vn -0.9976 -0.0699 -0.0000
vn -1.0000 0.0000 0.0039
vn -0.9976 0.0699 0.0000
vn -0.9975 0.0707 0.0000
vn -0.9975 -0.0707 0.0000
usemtl Material.023
s off
f 26/1/1 3/2/1 25/3/1
f 4/4/2 10/5/2 3/2/2
f 6/6/3 40/7/3 39/8/3
f 12/9/4 1/10/4 11/11/4
f 44/12/5 1/10/5 37/13/5
f 43/14/3 12/9/3 38/15/3
f 7/16/6 9/17/6 8/18/6
f 5/19/6 44/12/6 45/20/6
f 8/18/6 28/21/6 30/22/6
f 6/23/6 11/11/6 5/19/6
f 16/24/1 41/25/1 40/26/1
f 8/27/2 14/28/2 7/29/2
f 5/30/4 16/31/4 6/6/4
f 7/29/5 31/32/5 29/33/5
f 19/34/4 24/35/4 20/36/4
f 13/37/1 18/38/1 14/39/1
f 15/40/1 20/36/1 16/24/1
f 14/39/1 33/41/1 31/42/1
f 48/43/6 24/35/6 23/44/6
f 18/38/5 35/45/5 33/41/5
f 20/36/3 42/46/3 41/25/3
f 17/47/2 22/48/2 18/38/2
f 34/49/3 21/50/3 17/47/3
f 50/51/1 51/52/1 49/53/1
f 21/50/6 35/45/6 22/48/6
f 29/33/5 46/54/5 45/55/5
f 13/37/1 34/49/1 17/47/1
f 39/56/6 28/21/6 38/15/6
f 7/16/6 27/57/6 10/5/6
f 4/4/3 28/21/3 9/17/3
f 10/5/5 25/3/5 3/2/5
f 30/58/3 13/59/3 8/27/3
f 43/14/1 25/3/1 37/13/1
f 2/60/1 37/13/1 1/10/1
f 6/23/6 38/15/6 12/9/6
f 45/55/5 15/61/5 5/30/5
f 15/40/1 47/62/1 19/34/1
f 47/62/5 23/44/5 19/34/5
f 31/32/1 40/7/1 32/63/1
f 48/43/2 41/25/2 42/46/2
f 36/64/4 33/41/4 35/45/4
f 45/20/6 27/57/6 29/65/6
f 26/1/3 38/15/3 28/21/3
f 27/57/5 37/13/5 25/3/5
f 39/8/3 32/63/3 30/58/3
f 46/66/7 42/46/7 40/26/7
f 52/67/2 55/68/2 51/52/2
f 56/69/6 53/70/6 55/68/6
f 54/71/4 49/53/4 53/70/4
f 55/68/5 49/53/5 51/52/5
f 52/67/3 54/71/3 56/69/3
f 58/72/1 59/73/1 57/74/1
f 60/75/2 63/76/2 59/73/2
f 64/77/6 61/78/6 63/76/6
f 62/79/4 57/74/4 61/78/4
f 63/76/5 57/74/5 59/73/5
f 60/75/3 62/79/3 64/77/3
f 26/1/1 4/4/1 3/2/1
f 4/4/2 9/17/2 10/5/2
f 6/6/3 16/31/3 40/7/3
f 12/9/4 2/60/4 1/10/4
f 44/12/5 11/11/5 1/10/5
f 43/14/3 2/60/3 12/9/3
f 7/16/6 10/5/6 9/17/6
f 5/19/6 11/11/6 44/12/6
f 8/18/6 9/17/6 28/21/6
f 6/23/6 12/9/6 11/11/6
f 16/24/1 20/36/1 41/25/1
f 8/27/2 13/59/2 14/28/2
f 5/30/4 15/61/4 16/31/4
f 7/29/5 14/28/5 31/32/5
f 19/34/4 23/44/4 24/35/4
f 13/37/1 17/47/1 18/38/1
f 15/40/1 19/34/1 20/36/1
f 14/39/1 18/38/1 33/41/1
f 48/43/6 42/46/6 24/35/6
f 18/38/5 22/48/5 35/45/5
f 20/36/3 24/35/3 42/46/3
f 17/47/2 21/50/2 22/48/2
f 34/49/3 36/64/3 21/50/3
f 50/51/1 52/67/1 51/52/1
f 21/50/6 36/64/6 35/45/6
f 29/33/5 31/32/5 46/54/5
f 13/37/1 32/80/1 34/49/1
f 39/56/6 30/22/6 28/21/6
f 7/16/6 29/65/6 27/57/6
f 4/4/3 26/1/3 28/21/3
f 10/5/5 27/57/5 25/3/5
f 30/58/3 32/63/3 13/59/3
f 43/14/1 26/1/1 25/3/1
f 2/60/1 43/14/1 37/13/1
f 6/23/6 39/56/6 38/15/6
f 45/55/5 46/54/5 15/61/5
f 15/40/1 46/66/1 47/62/1
f 47/62/5 48/43/5 23/44/5
f 31/32/1 46/54/1 40/7/1
f 48/43/2 47/62/2 41/25/2
f 36/64/4 34/49/4 33/41/4
f 45/20/6 44/12/6 27/57/6
f 26/1/3 43/14/3 38/15/3
f 27/57/5 44/12/5 37/13/5
f 39/8/3 40/7/3 32/63/3
f 38/15/8 43/14/8 39/56/8
f 43/14/9 37/13/9 39/56/9
f 37/13/10 44/12/10 45/20/10
f 46/66/11 47/62/11 48/43/11
f 37/13/9 45/20/9 39/56/9
f 46/66/7 48/43/7 42/46/7
f 42/46/12 41/25/12 40/26/12
f 40/26/4 39/56/4 45/20/4
f 45/20/4 46/66/4 40/26/4
f 52/67/2 56/69/2 55/68/2
f 56/69/6 54/71/6 53/70/6
f 54/71/4 50/51/4 49/53/4
f 55/68/5 53/70/5 49/53/5
f 52/67/3 50/51/3 54/71/3
f 58/72/1 60/75/1 59/73/1
f 60/75/2 64/77/2 63/76/2
f 64/77/6 62/79/6 61/78/6
f 62/79/4 58/72/4 57/74/4
f 63/76/5 61/78/5 57/74/5
f 60/75/3 58/72/3 62/79/3
