# Blender v2.82 (sub 7) OBJ File: 'startup_file.blend'
# www.blender.org
mtllib kitchen_cabinet.mtl
o kitchen_cabinet_Cube.008
v 0.500000 -0.494783 0.415170
v 0.500000 0.361859 0.424319
v -0.500000 -0.494783 0.415170
v -0.500000 0.361859 0.424319
v 0.166667 -0.494783 -0.500000
v -0.166667 -0.494783 -0.500000
v -0.166667 0.361859 -0.500000
v 0.166667 0.361859 -0.500000
v 0.010027 0.361859 0.424319
v -0.042174 0.361859 0.424319
v 0.010027 -0.494783 0.415170
v -0.042174 -0.494783 0.415170
v -0.166667 0.438622 -0.500000
v 0.166667 0.438622 -0.500000
v 0.166667 0.438622 0.424319
v -0.166667 0.438622 0.424319
v 0.166667 0.500996 0.369118
v -0.166667 0.500996 0.369118
v -0.026203 -0.417833 0.500343
v -0.026203 0.186683 0.467550
v -0.088182 0.255993 0.484078
v -0.088182 0.306943 0.484078
v 0.058205 0.255993 0.484078
v 0.058205 0.306943 0.484078
v -0.088182 0.255993 0.534345
v -0.088182 0.306943 0.534345
v 0.058205 0.255993 0.534345
v 0.058205 0.306943 0.534345
v -0.500000 -0.494783 -0.481737
v -0.481737 -0.494783 -0.500000
v -0.500000 0.361859 -0.481737
v -0.481737 0.361859 -0.500000
v 0.481737 -0.494783 -0.500000
v 0.500000 -0.494783 -0.481737
v 0.481737 0.361859 -0.500000
v 0.500000 0.361859 -0.481737
v -0.500000 0.438622 -0.481737
v -0.481737 0.438622 -0.500000
v 0.481737 0.438622 -0.500000
v 0.500000 0.438622 -0.481737
v -0.481737 0.438622 0.424319
v -0.500000 0.457134 0.407937
v -0.500000 0.438622 0.406056
v -0.500000 0.420111 0.424319
v 0.500000 0.457134 0.407937
v 0.481737 0.438622 0.424319
v 0.500000 0.420111 0.424319
v 0.500000 0.438622 0.406056
v -0.481737 0.500996 -0.481737
v -0.481737 0.482485 -0.500000
v -0.500000 0.482485 -0.481737
v 0.481737 0.482485 -0.500000
v 0.481737 0.500996 -0.481737
v 0.500000 0.482485 -0.481737
v -0.500000 0.482485 0.385500
v -0.481737 0.500996 0.369118
v 0.481737 0.500996 0.369118
v 0.500000 0.482485 0.385500
v 0.481737 0.457134 0.487966
v 0.481737 0.438622 0.469702
v 0.500000 0.457134 0.469702
v -0.481737 0.438622 0.469702
v -0.500000 0.457134 0.487966
v 0.481737 0.482485 0.487966
v 0.500000 0.482485 0.469702
v 0.481737 0.500996 0.469702
v -0.481737 0.500996 0.469702
v -0.500000 0.482485 0.487966
v -0.166667 0.500996 -0.481737
v -0.166667 0.482485 -0.500000
v 0.166667 0.482485 -0.500000
v 0.166667 0.500996 -0.481737
v 0.166667 0.457134 0.487966
v 0.166667 0.438622 0.469702
v -0.166667 0.438622 0.469702
v -0.166667 0.457134 0.487966
v 0.166667 0.500996 0.469702
v 0.166667 0.482485 0.487966
v -0.166667 0.482485 0.487966
v -0.166667 0.500996 0.469702
v -0.478874 -0.412580 0.499412
v -0.500000 -0.447837 0.480214
v -0.500000 0.361859 0.480568
v -0.478874 0.340447 0.499984
v 0.478874 -0.412580 0.499412
v 0.500000 -0.447837 0.480214
v 0.478874 0.340447 0.499984
v 0.500000 0.361859 0.480568
v -0.042174 -0.447731 0.480360
v -0.042174 -0.412580 0.499412
v 0.010027 -0.412580 0.499412
v 0.010027 -0.447731 0.480360
v 0.010027 0.361859 0.480443
v 0.010027 0.340447 0.499984
v -0.042174 0.340447 0.499984
v -0.042174 0.361859 0.480443
vt 0.785236 0.558907
vt 0.785236 0.558907
vt 0.785236 0.558907
vt 0.785236 0.558907
vt 0.785236 0.558907
vt 0.785236 0.558907
vt 0.785236 0.558907
vt 0.785236 0.558907
vt 0.785236 0.558907
vt 0.785236 0.558907
vt 0.785236 0.558907
vt 0.785236 0.558907
vt 0.785236 0.558907
vt 0.785236 0.558907
vt 0.785236 0.558907
vt 0.326378 0.072146
vt 0.326378 0.072146
vt 0.326378 0.072146
vt 0.785236 0.558907
vt 0.785236 0.558907
vt 0.785236 0.558907
vt 0.785236 0.558907
vt 0.785236 0.558907
vt 0.785236 0.558907
vt 0.785236 0.558907
vt 0.785236 0.558907
vt 0.785236 0.558907
vt 0.785236 0.558907
vt 0.326378 0.072146
vt 0.326378 0.072146
vt 0.326378 0.072146
vt 0.785236 0.558907
vt 0.785236 0.558907
vt 0.326378 0.072146
vt 0.326378 0.072146
vt 0.326378 0.072146
vt 0.785236 0.558907
vt 0.785236 0.558907
vt 0.785236 0.558907
vt 0.326378 0.072146
vt 0.326378 0.072146
vt 0.326378 0.072146
vt 0.326378 0.072146
vt 0.326378 0.072146
vt 0.326378 0.072146
vt 0.447293 0.056644
vt 0.447293 0.056644
vt 0.447293 0.056644
vt 0.326378 0.072146
vt 0.326378 0.072146
vt 0.326378 0.072146
vt 0.326378 0.072146
vt 0.326378 0.072146
vt 0.326378 0.072146
vt 0.326378 0.072146
vt 0.326378 0.072146
vt 0.326378 0.072146
vt 0.326378 0.072146
vt 0.326378 0.072146
vt 0.326378 0.072146
vt 0.326378 0.072146
vt 0.326378 0.072146
vt 0.326378 0.072146
vt 0.326378 0.072146
vt 0.326378 0.072146
vt 0.326378 0.072146
vt 0.326378 0.072146
vt 0.326378 0.072146
vt 0.326378 0.072146
vt 0.326378 0.072146
vt 0.326378 0.072146
vt 0.326378 0.072146
vt 0.785236 0.558907
vt 0.785236 0.558907
vt 0.785236 0.558907
vt 0.447293 0.056644
vt 0.447293 0.056644
vt 0.447293 0.056644
vt 0.326378 0.072146
vt 0.785236 0.558907
vt 0.447293 0.056644
vt 0.447293 0.056644
vt 0.785236 0.558907
vt 0.785236 0.558907
vt 0.785236 0.558907
vt 0.785236 0.558907
vt 0.819340 0.952657
vt 0.819340 0.952657
vt 0.819340 0.952657
vt 0.819340 0.952657
vt 0.819340 0.952657
vt 0.819340 0.952657
vt 0.819340 0.952657
vt 0.819340 0.952657
vt 0.326378 0.072146
vt 0.326378 0.072146
vt 0.326378 0.072146
vt 0.326378 0.072146
vt 0.326378 0.072146
vt 0.326378 0.072146
vt 0.326378 0.072146
vt 0.785236 0.558907
vt 0.785236 0.558907
vt 0.326378 0.072146
vt 0.785236 0.558907
vt 0.785236 0.558907
vt 0.785236 0.558907
vt 0.785236 0.558907
vt 0.326378 0.072146
vt 0.785236 0.558907
vt 0.447293 0.056644
vt 0.785236 0.558907
vt 0.447293 0.056644
vt 0.326378 0.072146
vn 0.0000 0.0000 -1.0000
vn 0.0000 1.0000 0.0000
vn 0.0000 -1.0000 0.0000
vn 0.0000 -0.0008 1.0000
vn 1.0000 0.0000 0.0000
vn -1.0000 0.0000 0.0000
vn 0.0000 -0.8109 0.5852
vn 0.0000 0.0000 1.0000
vn -0.5799 0.5722 0.5799
vn 0.7053 -0.0717 0.7053
vn -0.5799 0.5722 -0.5799
vn 0.5799 0.5722 -0.5799
vn 0.5799 -0.5722 0.5799
vn 0.5799 0.5722 0.5799
vn -0.7071 0.0000 -0.7071
vn 0.7071 0.0000 -0.7071
vn 0.0000 0.7023 -0.7119
vn -0.7119 0.7023 0.0000
vn 0.7119 0.7023 0.0000
vn 0.0000 -0.7023 0.7119
vn 0.0000 0.7023 0.7119
vn 0.7071 0.0000 0.7071
vn 0.7119 -0.7023 0.0000
vn -0.7119 -0.7023 0.0000
vn 0.6770 -0.0006 0.7360
vn 0.0000 -0.4765 0.8792
vn 0.0000 0.6741 0.7387
vn -0.6770 -0.0006 0.7360
vn -0.0002 -0.4781 0.8783
vn -0.0002 0.6718 0.7407
vn -0.7053 -0.0717 0.7053
vn 0.6722 -0.0003 0.7404
vn 0.0002 -0.4781 0.8783
vn 0.0002 0.6718 0.7407
vn -0.6722 -0.0003 0.7403
usemtl Material.009
s off
f 8/1/1 39/2/1 35/3/1
f 2/4/2 93/5/2 88/6/2
f 96/7/2 4/8/2 83/9/2
f 29/10/3 6/11/3 3/12/3
f 95/13/4 81/14/4 90/15/4
f 45/16/5 65/17/5 61/18/5
f 87/19/4 91/20/4 85/21/4
f 4/8/6 44/22/6 43/23/6
f 12/24/7 82/25/7 3/12/7
f 1/26/3 11/27/3 5/28/3
f 69/29/2 56/30/2 18/31/2
f 36/32/5 1/26/5 34/33/5
f 43/34/6 42/35/6 55/36/6
f 32/37/1 13/38/1 7/39/1
f 53/40/2 17/41/2 57/42/2
f 38/43/1 70/44/1 13/45/1
f 41/46/8 4/47/8 16/48/8
f 14/49/1 52/50/1 39/51/1
f 76/52/8 68/53/8 63/54/8
f 46/55/3 74/56/3 15/57/3
f 16/58/3 62/59/3 41/60/3
f 17/41/2 66/61/2 57/42/2
f 59/62/8 78/63/8 73/64/8
f 72/65/2 18/31/2 17/41/2
f 18/31/2 77/66/2 17/41/2
f 40/67/5 54/68/5 58/69/5
f 15/57/3 75/70/3 16/58/3
f 56/30/2 80/71/2 18/31/2
f 13/45/1 71/72/1 14/49/1
f 36/32/5 40/73/5 48/74/5
f 7/39/1 14/75/1 8/1/1
f 2/76/8 46/77/8 15/78/8
f 73/64/8 79/79/8 76/52/8
f 8/1/1 33/80/1 5/28/1
f 11/27/3 6/11/3 5/28/3
f 91/20/4 95/13/4 90/15/4
f 42/35/6 68/53/6 55/36/6
f 9/81/8 16/48/8 10/82/8
f 2/4/5 86/83/5 1/26/5
f 9/84/2 96/7/2 93/5/2
f 86/83/7 11/27/7 1/26/7
f 3/12/6 31/85/6 29/10/6
f 7/39/1 5/28/1 6/11/1
f 92/86/7 12/24/7 11/27/7
f 22/87/1 23/88/1 21/89/1
f 24/90/5 27/91/5 23/88/5
f 28/92/8 25/93/8 27/91/8
f 26/94/6 21/89/6 25/93/6
f 27/91/3 21/89/3 23/88/3
f 24/90/2 26/94/2 28/92/2
f 41/60/9 43/34/9 44/95/9
f 46/55/10 48/96/10 45/16/10
f 49/97/11 50/98/11 51/99/11
f 52/50/12 53/40/12 54/68/12
f 59/62/13 60/100/13 61/18/13
f 64/101/14 65/17/14 66/61/14
f 31/85/15 30/102/15 29/10/15
f 34/33/16 35/3/16 36/32/16
f 37/103/15 32/37/15 31/85/15
f 36/32/16 39/2/16 40/73/16
f 53/40/17 71/72/17 72/65/17
f 56/30/18 51/99/18 55/36/18
f 57/42/19 54/68/19 53/40/19
f 38/43/15 51/99/15 50/98/15
f 52/50/16 40/67/16 39/51/16
f 76/52/20 62/59/20 75/70/20
f 67/104/21 79/79/21 80/71/21
f 65/17/22 59/62/22 61/18/22
f 61/18/23 46/55/23 45/16/23
f 42/35/24 62/59/24 63/54/24
f 66/61/19 58/69/19 57/42/19
f 67/104/18 55/36/18 68/53/18
f 69/29/17 50/98/17 49/97/17
f 72/65/17 70/44/17 69/29/17
f 73/64/20 60/100/20 59/62/20
f 76/52/20 74/56/20 73/64/20
f 77/66/21 64/101/21 66/61/21
f 80/71/21 78/63/21 77/66/21
f 32/37/1 6/11/1 30/102/1
f 85/21/25 88/6/25 87/19/25
f 92/86/26 85/21/26 91/20/26
f 96/7/27 84/105/27 95/13/27
f 83/9/28 81/14/28 84/105/28
f 89/106/29 81/14/29 82/25/29
f 92/86/26 90/15/26 89/106/26
f 93/5/30 87/19/30 88/6/30
f 96/7/27 94/107/27 93/5/27
f 82/25/6 4/8/6 3/12/6
f 8/1/1 14/75/1 39/2/1
f 2/4/2 9/84/2 93/5/2
f 96/7/2 10/108/2 4/8/2
f 30/102/3 6/11/3 29/10/3
f 6/11/3 12/24/3 3/12/3
f 95/13/4 84/105/4 81/14/4
f 45/16/5 58/69/5 65/17/5
f 87/19/4 94/107/4 91/20/4
f 37/103/6 31/85/6 43/23/6
f 31/85/6 4/8/6 43/23/6
f 12/24/7 89/106/7 82/25/7
f 5/28/3 33/80/3 34/33/3
f 34/33/3 1/26/3 5/28/3
f 69/29/2 49/97/2 56/30/2
f 36/32/5 2/4/5 1/26/5
f 51/99/6 37/109/6 55/36/6
f 37/109/6 43/34/6 55/36/6
f 32/37/1 38/110/1 13/38/1
f 53/40/2 72/65/2 17/41/2
f 38/43/1 50/98/1 70/44/1
f 44/111/8 4/47/8 41/46/8
f 4/47/8 10/82/8 16/48/8
f 14/49/1 71/72/1 52/50/1
f 76/52/8 79/79/8 68/53/8
f 46/55/3 60/100/3 74/56/3
f 16/58/3 75/70/3 62/59/3
f 17/41/2 77/66/2 66/61/2
f 59/62/8 64/101/8 78/63/8
f 72/65/2 69/29/2 18/31/2
f 18/31/2 80/71/2 77/66/2
f 58/69/5 45/16/5 48/96/5
f 48/96/5 40/67/5 58/69/5
f 15/57/3 74/56/3 75/70/3
f 56/30/2 67/104/2 80/71/2
f 13/45/1 70/44/1 71/72/1
f 47/112/5 2/4/5 48/74/5
f 2/4/5 36/32/5 48/74/5
f 7/39/1 13/38/1 14/75/1
f 15/78/8 9/81/8 2/76/8
f 2/76/8 47/113/8 46/77/8
f 73/64/8 78/63/8 79/79/8
f 8/1/1 35/3/1 33/80/1
f 11/27/3 12/24/3 6/11/3
f 91/20/4 94/107/4 95/13/4
f 42/35/6 63/54/6 68/53/6
f 9/81/8 15/78/8 16/48/8
f 2/4/5 88/6/5 86/83/5
f 9/84/2 10/108/2 96/7/2
f 86/83/7 92/86/7 11/27/7
f 3/12/6 4/8/6 31/85/6
f 7/39/1 8/1/1 5/28/1
f 92/86/7 89/106/7 12/24/7
f 22/87/1 24/90/1 23/88/1
f 24/90/5 28/92/5 27/91/5
f 28/92/8 26/94/8 25/93/8
f 26/94/6 22/87/6 21/89/6
f 27/91/3 25/93/3 21/89/3
f 24/90/2 22/87/2 26/94/2
f 41/60/31 42/35/31 43/34/31
f 46/55/14 47/114/14 48/96/14
f 31/85/15 32/37/15 30/102/15
f 34/33/16 33/80/16 35/3/16
f 37/103/15 38/110/15 32/37/15
f 36/32/16 35/3/16 39/2/16
f 53/40/17 52/50/17 71/72/17
f 56/30/18 49/97/18 51/99/18
f 57/42/19 58/69/19 54/68/19
f 38/43/15 37/109/15 51/99/15
f 52/50/16 54/68/16 40/67/16
f 76/52/20 63/54/20 62/59/20
f 67/104/21 68/53/21 79/79/21
f 65/17/22 64/101/22 59/62/22
f 61/18/23 60/100/23 46/55/23
f 42/35/24 41/60/24 62/59/24
f 66/61/19 65/17/19 58/69/19
f 67/104/18 56/30/18 55/36/18
f 69/29/17 70/44/17 50/98/17
f 72/65/17 71/72/17 70/44/17
f 73/64/20 74/56/20 60/100/20
f 76/52/20 75/70/20 74/56/20
f 77/66/21 78/63/21 64/101/21
f 80/71/21 79/79/21 78/63/21
f 32/37/1 7/39/1 6/11/1
f 85/21/32 86/83/32 88/6/32
f 92/86/33 86/83/33 85/21/33
f 96/7/34 83/9/34 84/105/34
f 83/9/35 82/25/35 81/14/35
f 89/106/26 90/15/26 81/14/26
f 92/86/26 91/20/26 90/15/26
f 93/5/27 94/107/27 87/19/27
f 96/7/27 95/13/27 94/107/27
f 82/25/6 83/9/6 4/8/6
