# Blender v2.82 (sub 7) OBJ File: 'models.blend'
# www.blender.org
mtllib sink.mtl
o sink_Cube.010
v -0.386786 -0.504341 -0.402405
v -0.386786 -0.412068 -0.402405
v 0.387028 -0.504341 -0.402405
v 0.387028 -0.412068 -0.402405
v -0.386786 -0.504341 0.290295
v -0.386786 -0.412068 0.290295
v 0.387028 -0.504341 0.290295
v 0.387028 -0.412068 0.290295
v -0.478119 -0.412068 -0.484163
v 0.478360 -0.412068 -0.484163
v 0.478360 -0.412068 0.372053
v -0.478119 -0.412068 0.372053
v -0.071457 0.292141 -0.221274
v 0.073711 0.292141 -0.221274
v 0.321885 0.344757 0.238186
v -0.321644 0.344757 0.238186
v -0.478119 0.344757 -0.484163
v 0.478360 0.344757 -0.484163
v 0.478360 0.344757 0.372053
v -0.478119 0.344757 0.372053
v -0.071457 0.240101 -0.221274
v 0.073711 0.240101 -0.221274
v 0.321885 0.058652 0.238186
v -0.321644 0.058652 0.238186
v -0.054585 0.326963 -0.357423
v -0.054585 0.541261 -0.357423
v 0.054826 0.326963 -0.357423
v 0.054826 0.541261 -0.357423
v -0.054585 0.326963 -0.282966
v -0.054585 0.541261 -0.282966
v 0.054826 0.326963 -0.282966
v 0.054826 0.541261 -0.282966
v -0.054585 0.394556 -0.357423
v -0.054585 0.504724 -0.357423
v 0.054826 0.504724 -0.357423
v 0.054826 0.394556 -0.357423
v 0.054826 0.504724 -0.282966
v 0.054826 0.394556 -0.282966
v -0.054585 0.504724 -0.282966
v -0.054585 0.394556 -0.282966
v -0.054585 0.678369 -0.357423
v 0.054826 0.678369 -0.357423
v 0.054826 0.678369 -0.282966
v -0.054585 0.678369 -0.282966
v -0.043715 0.504724 -0.347692
v -0.043715 0.541261 -0.347692
v 0.043956 0.541261 -0.347692
v 0.043956 0.541261 -0.292697
v -0.043715 0.541261 -0.292697
v 0.043956 0.504724 -0.347692
v 0.043956 0.504724 -0.292697
v -0.043715 0.504724 -0.292697
v 0.054826 0.636182 -0.357423
v 0.054826 0.636182 -0.282966
v -0.054585 0.636182 -0.282966
v -0.054585 0.636182 -0.357423
v 0.054826 0.678369 -0.067171
v -0.054585 0.678369 -0.067171
v 0.029760 0.636182 -0.091688
v -0.029519 0.636182 -0.091688
v 0.029760 0.636182 -0.161106
v -0.029519 0.636182 -0.161106
v -0.054585 0.678369 -0.185623
v 0.054826 0.678369 -0.185623
v 0.043738 0.636182 -0.079175
v -0.043497 0.636182 -0.079175
v 0.043738 0.636182 -0.173619
v -0.043497 0.636182 -0.173619
v 0.029760 0.622259 -0.091688
v -0.029519 0.622259 -0.091688
v 0.029760 0.622259 -0.161106
v -0.029519 0.622259 -0.161106
v 0.478360 -0.069599 0.372053
v 0.478360 0.230598 0.372053
v 0.478360 0.282299 0.372053
v -0.478119 0.282299 0.372053
v -0.478119 0.230598 0.372053
v -0.478119 -0.069599 0.372053
v -0.478119 -0.069599 -0.484163
v -0.478119 0.230598 -0.484163
v -0.478119 0.282299 -0.484163
v 0.478360 0.282299 -0.484163
v 0.478360 0.230598 -0.484163
v 0.478360 -0.069599 -0.484163
v 0.456794 0.230598 0.352748
v 0.456794 0.282299 0.352748
v -0.456553 0.282299 0.352748
v -0.456553 0.230598 0.352748
v -0.456553 0.230598 -0.464858
v -0.456553 0.282299 -0.464858
v 0.456794 0.282299 -0.464858
v 0.456794 0.230598 -0.464858
v 0.424431 -0.370330 0.372053
v -0.439974 -0.370330 0.372053
v -0.439974 -0.111337 0.372053
v 0.424431 -0.111337 0.372053
v 0.426568 -0.033684 0.372053
v 0.426568 0.194683 0.372053
v -0.442111 0.194683 0.372053
v -0.442111 -0.033684 0.372053
v 0.424431 -0.370330 0.409027
v -0.439974 -0.370330 0.409027
v -0.439974 -0.111337 0.409027
v 0.424431 -0.111337 0.409027
v 0.426568 -0.033684 0.409027
v 0.426568 0.194683 0.409027
v -0.442111 0.194683 0.409027
v -0.442111 -0.033684 0.409027
v 0.468480 -0.394797 0.409027
v -0.477405 -0.394797 0.409027
v -0.477405 -0.073155 0.409027
v 0.468480 -0.073155 0.409027
v 0.470803 -0.069603 0.409027
v 0.470803 0.219150 0.409027
v -0.479728 0.219150 0.409027
v -0.479728 -0.069603 0.409027
v 0.077738 -0.250153 0.433064
v -0.086663 -0.250153 0.433064
v -0.086663 -0.217800 0.433064
v 0.077738 -0.217800 0.433064
v 0.079999 0.060861 0.433064
v 0.079999 0.088686 0.433064
v -0.088923 0.088686 0.433064
v -0.088923 0.060861 0.433064
v 0.470803 -0.069603 0.433064
v 0.470803 0.219150 0.433064
v -0.479728 0.219150 0.433064
v -0.479728 -0.069603 0.433064
v 0.468480 -0.394797 0.433064
v -0.477405 -0.394797 0.433064
v -0.477405 -0.073155 0.433064
v 0.468480 -0.073155 0.433064
v 0.079999 0.060861 0.448358
v 0.079999 0.088686 0.448358
v -0.088923 0.088686 0.448358
v -0.088923 0.060861 0.448358
v 0.077738 -0.250153 0.448358
v -0.086663 -0.250153 0.448358
v -0.086663 -0.217800 0.448358
v 0.077738 -0.217800 0.448358
v -0.321644 0.344757 -0.221274
v 0.321885 0.344757 -0.221274
v -0.321644 0.058652 -0.221274
v 0.321885 0.058652 -0.221274
v -0.071457 0.292141 -0.273561
v 0.073711 0.292141 -0.273561
v -0.071457 0.240101 -0.273561
v 0.073711 0.240101 -0.273561
vt 0.822441 0.943356
vt 0.822441 0.943356
vt 0.822441 0.943356
vt 0.822441 0.943356
vt 0.822441 0.943356
vt 0.822441 0.943356
vt 0.822441 0.943356
vt 0.822441 0.943356
vt 0.329478 0.937155
vt 0.329478 0.937155
vt 0.329478 0.937155
vt 0.307776 0.921653
vt 0.307776 0.921653
vt 0.307776 0.921653
vt 0.329478 0.937155
vt 0.329478 0.937155
vt 0.329478 0.937155
vt 0.329478 0.937155
vt 0.329478 0.937155
vt 0.320177 0.958858
vt 0.320177 0.958858
vt 0.320177 0.958858
vt 0.307776 0.921653
vt 0.307776 0.921653
vt 0.307776 0.921653
vt 0.307776 0.921653
vt 0.307776 0.921653
vt 0.344980 0.930954
vt 0.344980 0.930955
vt 0.344980 0.930954
vt 0.344980 0.930955
vt 0.344980 0.930955
vt 0.344980 0.930954
vt 0.344980 0.930955
vt 0.344980 0.930955
vt 0.475197 0.822441
vt 0.475197 0.822441
vt 0.475197 0.822441
vt 0.320177 0.958858
vt 0.320177 0.958858
vt 0.320177 0.958858
vt 0.320177 0.958858
vt 0.320177 0.958858
vt 0.320177 0.958858
vt 0.320177 0.958858
vt 0.695325 0.921653
vt 0.695325 0.921653
vt 0.695325 0.921653
vt 0.695325 0.921653
vt 0.695325 0.921653
vt 0.695325 0.921653
vt 0.695325 0.921653
vt 0.695325 0.921653
vt 0.695325 0.921653
vt 0.695325 0.921653
vt 0.695325 0.921653
vt 0.695325 0.921653
vt 0.695325 0.921653
vt 0.695325 0.921653
vt 0.695325 0.921653
vt 0.695325 0.921653
vt 0.695325 0.921653
vt 0.695325 0.921653
vt 0.695325 0.921653
vt 0.695325 0.921653
vt 0.695325 0.921653
vt 0.695325 0.921653
vt 0.695325 0.921653
vt 0.695325 0.921653
vt 0.695325 0.921653
vt 0.695325 0.921653
vt 0.695325 0.921653
vt 0.695325 0.921653
vt 0.695325 0.921653
vt 0.803838 0.930955
vt 0.803838 0.930955
vt 0.803838 0.930955
vt 0.803838 0.930955
vt 0.803838 0.930955
vt 0.803838 0.930955
vt 0.803838 0.930955
vt 0.803838 0.930955
vt 0.695325 0.921653
vt 0.695325 0.921653
vt 0.695325 0.921653
vt 0.695325 0.921653
vt 0.695325 0.921653
vt 0.695325 0.921653
vt 0.695325 0.921653
vt 0.695325 0.921653
vt 0.695325 0.921653
vt 0.695325 0.921653
vt 0.695325 0.921653
vt 0.695325 0.921653
vt 0.695325 0.921653
vt 0.695325 0.921653
vt 0.695325 0.921653
vt 0.695325 0.921653
vt 0.695325 0.921653
vt 0.695325 0.921653
vt 0.695325 0.921653
vt 0.332579 0.952657
vt 0.332579 0.952657
vt 0.332579 0.952657
vt 0.332579 0.952657
vt 0.332579 0.952657
vt 0.301575 0.912352
vt 0.301575 0.912352
vt 0.301575 0.912352
vt 0.332579 0.952657
vt 0.332579 0.952657
vt 0.332579 0.952657
vt 0.332579 0.952657
vt 0.332579 0.952657
vt 0.301575 0.912352
vt 0.301575 0.912352
vt 0.332579 0.952657
vt 0.410089 0.831742
vt 0.410089 0.831742
vt 0.410089 0.831742
vt 0.335679 0.921653
vt 0.335679 0.921653
vt 0.335679 0.921653
vt 0.317077 0.912352
vt 0.317077 0.912352
vt 0.317077 0.912352
vt 0.301575 0.912352
vt 0.301575 0.912352
vt 0.788337 0.924754
vt 0.788337 0.924754
vt 0.788337 0.924754
vt 0.788337 0.924754
vt 0.788337 0.924754
vt 0.788337 0.924754
vt 0.788337 0.924754
vt 0.788337 0.924754
vt 0.410089 0.831742
vt 0.410089 0.831742
vt 0.301575 0.912352
vt 0.410089 0.831742
vt 0.410089 0.831742
vt 0.410089 0.831742
vt 0.859645 0.943356
vt 0.859645 0.943356
vt 0.859645 0.943356
vt 0.335679 0.921653
vt 0.335679 0.921653
vt 0.335679 0.921653
vt 0.335679 0.921653
vt 0.335679 0.921653
vt 0.859645 0.943356
vt 0.859645 0.943356
vt 0.317077 0.912352
vt 0.317077 0.912352
vt 0.317077 0.912352
vt 0.317077 0.912352
vt 0.317077 0.912352
vt 0.320177 0.915453
vt 0.320177 0.915453
vt 0.320177 0.915453
vt 0.320177 0.915453
vt 0.320177 0.915453
vt 0.834842 0.934055
vt 0.834842 0.934055
vt 0.834842 0.934055
vt 0.834842 0.934055
vt 0.834842 0.934055
vt 0.859645 0.943356
vt 0.859645 0.943356
vt 0.834842 0.934055
vt 0.834842 0.934055
vt 0.859645 0.943356
vt 0.834842 0.934055
vt 0.301575 0.927854
vt 0.301575 0.927854
vt 0.301575 0.927854
vt 0.301575 0.927854
vt 0.301575 0.927854
vt 0.304675 0.934055
vt 0.304675 0.934055
vt 0.304675 0.934055
vt 0.304675 0.934055
vt 0.304675 0.934055
vt 0.320177 0.915453
vt 0.320177 0.915453
vt 0.320177 0.915453
vt 0.304675 0.934055
vt 0.304675 0.934055
vt 0.304675 0.934055
vt 0.847244 0.940256
vt 0.847244 0.940256
vt 0.847244 0.940256
vt 0.788337 0.943356
vt 0.788337 0.943356
vt 0.788337 0.943356
vt 0.286073 0.937155
vt 0.286073 0.937155
vt 0.286073 0.937155
vt 0.286073 0.937155
vt 0.286073 0.937155
vt 0.301575 0.927854
vt 0.301575 0.927854
vt 0.301575 0.927854
vt 0.286073 0.937155
vt 0.286073 0.937155
vt 0.286073 0.937155
vt 0.326378 0.955758
vt 0.326378 0.955758
vt 0.326378 0.955758
vt 0.326378 0.955758
vt 0.326378 0.955758
vt 0.326378 0.955758
vt 0.326378 0.955758
vt 0.326378 0.955758
vt 0.320177 0.924754
vt 0.320177 0.924754
vt 0.320177 0.924754
vt 0.320177 0.924754
vt 0.320177 0.924754
vt 0.320177 0.924754
vt 0.320177 0.924754
vt 0.320177 0.924754
vt 0.788337 0.943356
vt 0.788337 0.943356
vt 0.847244 0.940256
vt 0.847244 0.940256
vt 0.847244 0.940256
vt 0.847244 0.940256
vt 0.788337 0.943356
vt 0.788337 0.943356
vt 0.847244 0.940256
vt 0.788337 0.943356
vt 0.320177 0.958858
vt 0.320177 0.958858
vt 0.320177 0.958858
vt 0.961958 0.934055
vt 0.961958 0.934055
vt 0.961958 0.934055
vt 0.320177 0.958858
vt 0.320177 0.958858
vt 0.320177 0.958858
vt 0.475197 0.822441
vt 0.332579 0.952657
vt 0.961958 0.934055
vn 0.0000 0.0000 -1.0000
vn 1.0000 0.0000 0.0000
vn 0.0000 0.0000 1.0000
vn -1.0000 0.0000 0.0000
vn 0.0000 -1.0000 0.0000
vn 0.0000 1.0000 0.0000
vn 0.0000 -0.2737 0.9618
vn -0.9672 -0.2542 0.0000
vn 0.9672 -0.2542 0.0000
vn 0.9690 -0.2267 0.0983
vn -0.9690 -0.2267 0.0983
usemtl Material.013
s off
f 2/1/1 3/2/1 1/3/1
f 4/4/2 7/5/2 3/2/2
f 8/6/3 5/7/3 7/5/3
f 6/8/4 1/3/4 5/7/4
f 7/5/5 1/3/5 3/2/5
f 6/9/5 11/10/5 12/11/5
f 75/12/3 20/13/3 76/14/3
f 2/15/5 10/16/5 4/17/5
f 6/9/5 9/18/5 2/15/5
f 4/17/5 11/10/5 8/19/5
f 142/20/4 23/21/4 15/22/4
f 81/23/1 18/24/1 82/25/1
f 76/14/4 17/26/4 81/23/4
f 82/25/2 19/27/2 75/12/2
f 142/28/6 17/29/6 141/30/6
f 142/28/6 19/31/6 18/32/6
f 16/33/6 19/31/6 15/34/6
f 141/30/6 20/35/6 16/33/6
f 144/36/6 24/37/6 23/38/6
f 15/22/1 24/39/1 16/40/1
f 14/41/4 148/42/4 22/43/4
f 16/40/2 143/44/2 141/45/2
f 37/46/6 52/47/6 39/48/6
f 35/49/6 51/50/6 37/46/6
f 32/51/5 47/52/5 28/53/5
f 34/54/6 50/55/6 35/49/6
f 31/56/5 25/57/5 27/58/5
f 53/59/2 43/60/2 54/61/2
f 40/62/4 25/57/4 29/63/4
f 39/48/4 33/64/4 40/62/4
f 38/65/3 29/63/3 31/56/3
f 37/46/3 40/62/3 38/65/3
f 36/66/2 31/56/2 27/58/2
f 35/49/2 38/65/2 36/66/2
f 25/57/1 36/66/1 27/58/1
f 33/64/1 35/49/1 36/66/1
f 42/67/6 44/68/6 43/60/6
f 62/69/4 70/70/4 60/71/4
f 56/72/1 42/67/1 53/59/1
f 55/73/4 41/74/4 56/72/4
f 46/75/1 50/76/1 45/77/1
f 47/78/2 51/79/2 50/76/2
f 48/80/3 52/81/3 51/79/3
f 49/82/4 45/77/4 52/81/4
f 39/48/6 45/83/6 34/54/6
f 30/84/5 48/85/5 32/51/5
f 28/53/5 46/86/5 26/87/5
f 26/87/5 49/88/5 30/84/5
f 30/84/4 56/72/4 26/87/4
f 26/87/1 53/59/1 28/53/1
f 32/51/3 55/73/3 30/84/3
f 28/53/2 54/61/2 32/51/2
f 65/89/7 58/90/7 66/91/7
f 68/92/8 58/90/8 63/93/8
f 63/93/6 57/94/6 64/95/6
f 64/95/9 65/89/9 67/96/9
f 54/61/10 64/95/10 67/96/10
f 44/68/6 64/95/6 43/60/6
f 55/73/4 63/93/4 44/68/4
f 54/61/5 68/92/5 55/73/5
f 59/97/5 66/91/5 60/71/5
f 61/98/5 65/89/5 59/97/5
f 60/71/5 68/92/5 62/69/5
f 62/69/5 67/96/5 61/98/5
f 71/99/5 70/70/5 72/100/5
f 60/71/3 69/101/3 59/97/3
f 61/98/1 72/100/1 62/69/1
f 59/97/2 71/99/2 61/98/2
f 10/102/2 73/103/2 11/104/2
f 84/105/2 74/106/2 73/103/2
f 74/107/6 88/108/6 77/109/6
f 12/110/4 79/111/4 9/112/4
f 78/113/4 80/114/4 79/111/4
f 83/115/6 85/116/6 74/107/6
f 9/112/1 84/105/1 10/102/1
f 79/111/1 83/117/1 84/105/1
f 81/118/5 87/119/5 76/120/5
f 12/121/3 93/122/3 94/123/3
f 74/124/3 97/125/3 73/126/3
f 80/127/6 92/128/6 83/115/6
f 92/129/2 86/130/2 85/131/2
f 88/132/4 90/133/4 89/134/4
f 89/134/1 91/135/1 92/129/1
f 85/131/3 87/136/3 88/132/3
f 82/137/5 90/138/5 81/118/5
f 77/109/6 89/139/6 80/127/6
f 75/140/5 91/141/5 82/137/5
f 76/120/5 86/142/5 75/140/5
f 94/143/4 103/144/4 95/145/4
f 12/121/3 95/146/3 78/147/3
f 78/147/3 96/148/3 73/149/3
f 11/150/3 96/148/3 93/122/3
f 95/145/6 104/151/6 96/152/6
f 78/153/3 97/125/3 100/154/3
f 77/155/3 98/156/3 74/124/3
f 78/153/3 99/157/3 77/155/3
f 101/158/1 110/159/1 102/160/1
f 104/161/1 109/162/1 101/158/1
f 97/163/5 108/164/5 100/165/5
f 98/166/2 105/167/2 97/163/2
f 96/152/2 101/168/2 93/169/2
f 99/170/6 106/171/6 98/166/6
f 93/169/5 102/172/5 94/143/5
f 100/165/4 107/173/4 99/170/4
f 114/174/2 125/175/2 113/176/2
f 113/176/5 128/177/5 116/178/5
f 106/179/1 115/180/1 114/181/1
f 108/182/1 115/180/1 107/183/1
f 104/161/1 111/184/1 112/185/1
f 103/186/1 110/159/1 111/184/1
f 105/187/1 116/188/1 108/182/1
f 105/187/1 114/181/1 113/189/1
f 123/190/6 134/191/6 122/192/6
f 118/193/4 139/194/4 119/195/4
f 112/196/2 129/197/2 109/198/2
f 109/198/5 130/199/5 110/200/5
f 115/201/6 126/202/6 114/174/6
f 116/178/4 127/203/4 115/201/4
f 111/204/6 132/205/6 112/196/6
f 110/200/4 131/206/4 111/204/4
f 122/207/3 125/208/3 126/209/3
f 123/210/3 128/211/3 124/212/3
f 124/212/3 125/208/3 121/213/3
f 123/210/3 126/209/3 127/214/3
f 118/215/3 129/216/3 117/217/3
f 118/215/3 131/218/3 130/219/3
f 120/220/3 129/216/3 132/221/3
f 120/220/3 131/218/3 119/222/3
f 137/223/3 139/194/3 138/224/3
f 133/225/3 135/226/3 136/227/3
f 124/228/4 135/226/4 123/190/4
f 120/229/2 137/223/2 117/230/2
f 117/230/5 138/224/5 118/193/5
f 121/231/5 136/227/5 124/228/5
f 119/195/6 140/232/6 120/229/6
f 122/192/2 133/225/2 121/231/2
f 13/233/3 142/20/3 141/45/3
f 21/234/3 144/235/3 22/43/3
f 22/43/3 142/20/3 14/41/3
f 21/234/3 141/45/3 143/44/3
f 145/236/3 148/237/3 146/238/3
f 13/233/5 146/239/5 14/41/5
f 21/234/2 145/240/2 13/233/2
f 22/43/6 147/241/6 21/234/6
f 2/1/1 4/4/1 3/2/1
f 4/4/2 8/6/2 7/5/2
f 8/6/3 6/8/3 5/7/3
f 6/8/4 2/1/4 1/3/4
f 7/5/5 5/7/5 1/3/5
f 6/9/5 8/19/5 11/10/5
f 75/12/3 19/27/3 20/13/3
f 2/15/5 9/18/5 10/16/5
f 6/9/5 12/11/5 9/18/5
f 4/17/5 10/16/5 11/10/5
f 142/20/4 144/235/4 23/21/4
f 81/23/1 17/26/1 18/24/1
f 76/14/4 20/13/4 17/26/4
f 82/25/2 18/24/2 19/27/2
f 142/28/6 18/32/6 17/29/6
f 142/28/6 15/34/6 19/31/6
f 16/33/6 20/35/6 19/31/6
f 141/30/6 17/29/6 20/35/6
f 144/36/6 143/242/6 24/37/6
f 15/22/1 23/21/1 24/39/1
f 14/41/4 146/239/4 148/42/4
f 16/40/2 24/39/2 143/44/2
f 37/46/6 51/50/6 52/47/6
f 35/49/6 50/55/6 51/50/6
f 32/51/5 48/85/5 47/52/5
f 34/54/6 45/83/6 50/55/6
f 31/56/5 29/63/5 25/57/5
f 53/59/2 42/67/2 43/60/2
f 40/62/4 33/64/4 25/57/4
f 39/48/4 34/54/4 33/64/4
f 38/65/3 40/62/3 29/63/3
f 37/46/3 39/48/3 40/62/3
f 36/66/2 38/65/2 31/56/2
f 35/49/2 37/46/2 38/65/2
f 25/57/1 33/64/1 36/66/1
f 33/64/1 34/54/1 35/49/1
f 42/67/6 41/74/6 44/68/6
f 62/69/4 72/100/4 70/70/4
f 56/72/1 41/74/1 42/67/1
f 55/73/4 44/68/4 41/74/4
f 46/75/1 47/78/1 50/76/1
f 47/78/2 48/80/2 51/79/2
f 48/80/3 49/82/3 52/81/3
f 49/82/4 46/75/4 45/77/4
f 39/48/6 52/47/6 45/83/6
f 30/84/5 49/88/5 48/85/5
f 28/53/5 47/52/5 46/86/5
f 26/87/5 46/86/5 49/88/5
f 30/84/4 55/73/4 56/72/4
f 26/87/1 56/72/1 53/59/1
f 32/51/3 54/61/3 55/73/3
f 28/53/2 53/59/2 54/61/2
f 65/89/7 57/94/7 58/90/7
f 68/92/8 66/91/8 58/90/8
f 63/93/6 58/90/6 57/94/6
f 64/95/9 57/94/9 65/89/9
f 54/61/2 43/60/2 64/95/2
f 44/68/6 63/93/6 64/95/6
f 55/73/11 68/92/11 63/93/11
f 54/61/5 67/96/5 68/92/5
f 59/97/5 65/89/5 66/91/5
f 61/98/5 67/96/5 65/89/5
f 60/71/5 66/91/5 68/92/5
f 62/69/5 68/92/5 67/96/5
f 71/99/5 69/101/5 70/70/5
f 60/71/3 70/70/3 69/101/3
f 61/98/1 71/99/1 72/100/1
f 59/97/2 69/101/2 71/99/2
f 10/102/2 84/105/2 73/103/2
f 84/105/2 83/117/2 74/106/2
f 74/107/6 85/116/6 88/108/6
f 12/110/4 78/113/4 79/111/4
f 78/113/4 77/243/4 80/114/4
f 83/115/6 92/128/6 85/116/6
f 9/112/1 79/111/1 84/105/1
f 79/111/1 80/114/1 83/117/1
f 81/118/5 90/138/5 87/119/5
f 12/121/3 11/150/3 93/122/3
f 74/124/3 98/156/3 97/125/3
f 80/127/6 89/139/6 92/128/6
f 92/129/2 91/135/2 86/130/2
f 88/132/4 87/136/4 90/133/4
f 89/134/1 90/133/1 91/135/1
f 85/131/3 86/130/3 87/136/3
f 82/137/5 91/141/5 90/138/5
f 77/109/6 88/108/6 89/139/6
f 75/140/5 86/142/5 91/141/5
f 76/120/5 87/119/5 86/142/5
f 94/143/4 102/172/4 103/144/4
f 12/121/3 94/123/3 95/146/3
f 78/147/3 95/146/3 96/148/3
f 11/150/3 73/149/3 96/148/3
f 95/145/6 103/144/6 104/151/6
f 78/153/3 73/126/3 97/125/3
f 77/155/3 99/157/3 98/156/3
f 78/153/3 100/154/3 99/157/3
f 101/158/1 109/162/1 110/159/1
f 104/161/1 112/185/1 109/162/1
f 97/163/5 105/167/5 108/164/5
f 98/166/2 106/171/2 105/167/2
f 96/152/2 104/151/2 101/168/2
f 99/170/6 107/173/6 106/171/6
f 93/169/5 101/168/5 102/172/5
f 100/165/4 108/164/4 107/173/4
f 114/174/2 126/202/2 125/175/2
f 113/176/5 125/175/5 128/177/5
f 106/179/1 107/183/1 115/180/1
f 108/182/1 116/188/1 115/180/1
f 104/161/1 103/186/1 111/184/1
f 103/186/1 102/160/1 110/159/1
f 105/187/1 113/189/1 116/188/1
f 105/187/1 106/179/1 114/181/1
f 123/190/6 135/226/6 134/191/6
f 118/193/4 138/224/4 139/194/4
f 112/196/2 132/205/2 129/197/2
f 109/198/5 129/197/5 130/199/5
f 115/201/6 127/203/6 126/202/6
f 116/178/4 128/177/4 127/203/4
f 111/204/6 131/206/6 132/205/6
f 110/200/4 130/199/4 131/206/4
f 122/207/3 121/213/3 125/208/3
f 123/210/3 127/214/3 128/211/3
f 124/212/3 128/211/3 125/208/3
f 123/210/3 122/207/3 126/209/3
f 118/215/3 130/219/3 129/216/3
f 118/215/3 119/222/3 131/218/3
f 120/220/3 117/217/3 129/216/3
f 120/220/3 132/221/3 131/218/3
f 137/223/3 140/232/3 139/194/3
f 133/225/3 134/191/3 135/226/3
f 124/228/4 136/227/4 135/226/4
f 120/229/2 140/232/2 137/223/2
f 117/230/5 137/223/5 138/224/5
f 121/231/5 133/225/5 136/227/5
f 119/195/6 139/194/6 140/232/6
f 122/192/2 134/191/2 133/225/2
f 13/233/3 14/41/3 142/20/3
f 21/234/3 143/44/3 144/235/3
f 22/43/3 144/235/3 142/20/3
f 21/234/3 13/233/3 141/45/3
f 145/236/3 147/244/3 148/237/3
f 13/233/5 145/240/5 146/239/5
f 21/234/2 147/241/2 145/240/2
f 22/43/6 148/42/6 147/241/6
