# Blender v2.82 (sub 7) OBJ File: 'startup_file.blend'
# www.blender.org
mtllib table.mtl
o table_Cube.005
v 0.704674 0.070215 0.700955
v 0.704674 0.023937 0.700955
v 0.303003 0.070215 0.700955
v 0.303003 0.023937 0.700955
v 0.704674 0.070215 0.299284
v 0.704674 0.023937 0.299284
v 0.303003 0.070215 0.299284
v 0.303003 0.023937 0.299284
v 0.465275 0.118426 0.538683
v 0.465275 0.118426 0.461556
v 0.542402 0.118426 0.538683
v 0.542402 0.118426 0.461556
v 0.465275 0.929162 0.538683
v 0.465275 0.929162 0.461556
v 0.542402 0.929162 0.538683
v 0.542402 0.929162 0.461556
v 0.130524 0.929162 0.873434
v 0.130524 0.929162 0.126805
v 0.877153 0.929162 0.873434
v 0.877153 0.929162 0.126805
v 0.130524 0.986061 0.873434
v 0.130524 0.986061 0.126805
v 0.877153 0.986061 0.873434
v 0.877153 0.986061 0.126805
vt 0.788178 0.937500
vt 0.788178 0.937500
vt 0.788178 0.937500
vt 0.810059 0.921373
vt 0.810059 0.921373
vt 0.810059 0.921373
vt 0.807932 0.940480
vt 0.807932 0.940480
vt 0.807932 0.940480
vt 0.671288 0.305614
vt 0.942706 0.585081
vt 0.671288 0.592823
vt 0.807932 0.940480
vt 0.807932 0.940480
vt 0.807932 0.940480
vt 0.807932 0.940480
vt 0.788178 0.937500
vt 0.788178 0.937500
vt 0.788178 0.937500
vt 0.788178 0.937500
vt 0.788178 0.937500
vt 0.788178 0.937500
vt 0.823710 0.551149
vt 0.823710 0.551149
vt 0.823710 0.551149
vt 0.788178 0.937500
vt 0.788178 0.937500
vt 0.788178 0.937500
vt 0.823710 0.551149
vt 0.823710 0.551149
vt 0.823710 0.551149
vt 0.823710 0.551149
vt 0.823710 0.551149
vt 0.823710 0.551149
vt 0.823710 0.551149
vt 0.823710 0.551149
vt 0.823710 0.551149
vt 0.810059 0.921373
vt 0.942706 0.313357
vt 0.807932 0.940480
vn 0.0000 0.9586 -0.2848
vn -1.0000 0.0000 0.0000
vn 0.0000 0.0000 -1.0000
vn 0.0000 -1.0000 0.0000
vn 0.0000 0.0000 1.0000
vn 1.0000 0.0000 0.0000
vn 0.0000 0.9586 0.2848
vn 0.2848 0.9586 0.0000
vn -0.2848 0.9586 0.0000
vn 0.0000 1.0000 0.0000
usemtl Material.006
s off
f 7/1/1 12/2/1 5/3/1
f 3/4/2 8/5/2 4/6/2
f 7/7/3 6/8/3 8/9/3
f 2/10/4 8/11/4 6/12/4
f 1/13/5 4/14/5 2/15/5
f 5/16/6 2/15/6 6/8/6
f 12/2/6 15/17/6 11/18/6
f 1/19/7 9/20/7 3/21/7
f 5/3/8 11/18/8 1/19/8
f 3/21/9 10/22/9 7/1/9
f 16/23/4 18/24/4 20/25/4
f 11/18/5 13/26/5 9/20/5
f 10/22/3 16/27/3 12/2/3
f 9/20/2 14/28/2 10/22/2
f 20/25/6 23/29/6 19/30/6
f 13/31/4 18/24/4 14/32/4
f 15/33/4 20/25/4 19/30/4
f 15/33/4 17/34/4 13/31/4
f 24/35/10 21/36/10 23/29/10
f 19/30/5 21/36/5 17/34/5
f 18/24/3 24/35/3 20/25/3
f 17/34/2 22/37/2 18/24/2
f 7/1/1 10/22/1 12/2/1
f 3/4/2 7/38/2 8/5/2
f 7/7/3 5/16/3 6/8/3
f 2/10/4 4/39/4 8/11/4
f 1/13/5 3/40/5 4/14/5
f 5/16/6 1/13/6 2/15/6
f 12/2/6 16/27/6 15/17/6
f 1/19/7 11/18/7 9/20/7
f 5/3/8 12/2/8 11/18/8
f 3/21/9 9/20/9 10/22/9
f 16/23/4 14/32/4 18/24/4
f 11/18/5 15/17/5 13/26/5
f 10/22/3 14/28/3 16/27/3
f 9/20/2 13/26/2 14/28/2
f 20/25/6 24/35/6 23/29/6
f 13/31/4 17/34/4 18/24/4
f 15/33/4 16/23/4 20/25/4
f 15/33/4 19/30/4 17/34/4
f 24/35/10 22/37/10 21/36/10
f 19/30/5 23/29/5 21/36/5
f 18/24/3 22/37/3 24/35/3
f 17/34/2 21/36/2 22/37/2
