# Blender v2.82 (sub 7) OBJ File: 'untitled.blend'
# www.blender.org
mtllib table.mtl
o Cube
v 0.700955 0.070215 -0.704674
v 0.700955 0.023937 -0.704674
v 0.700955 0.070215 -0.303003
v 0.700955 0.023937 -0.303003
v 0.299284 0.070215 -0.704674
v 0.299284 0.023937 -0.704674
v 0.299284 0.070215 -0.303003
v 0.299284 0.023937 -0.303003
v 0.538683 0.118426 -0.465275
v 0.461556 0.118426 -0.465275
v 0.538683 0.118426 -0.542402
v 0.461556 0.118426 -0.542402
v 0.538683 0.929162 -0.465275
v 0.461556 0.929162 -0.465275
v 0.538683 0.929162 -0.542402
v 0.461556 0.929162 -0.542402
v 0.873434 0.929162 -0.130524
v 0.126805 0.929162 -0.130524
v 0.873434 0.929162 -0.877153
v 0.126805 0.929162 -0.877153
v 0.873434 0.986061 -0.130524
v 0.126805 0.986061 -0.130524
v 0.873434 0.986061 -0.877153
v 0.126805 0.986061 -0.877153
vt 0.963066 0.975124
vt 0.825086 0.773432
vt 0.963066 0.634218
vt 0.958568 0.297853
vt 0.942706 0.585081
vt 0.942706 0.313357
vt 0.958568 0.600585
vt 0.671288 0.592823
vt 0.671288 0.305614
vt 0.655426 0.290310
vt 0.655426 0.608127
vt 0.003296 0.999992
vt 0.006650 0.025980
vt 0.000008 0.981923
vt 0.622316 0.634251
vt 0.760296 0.835943
vt 0.622316 0.975157
vt 0.761484 0.772367
vt 0.823898 0.837008
vt 0.431388 0.157661
vt 0.270593 0.026975
vt 0.562074 0.026975
vt 0.005031 0.034643
vt 0.003341 0.975367
vt 0.006650 0.981935
vt 0.005093 0.000008
vt 0.003444 0.025974
vt 0.209307 0.607209
vt 0.221906 0.955870
vt 0.209307 0.971971
vt 0.401278 0.187771
vt 0.401278 0.157661
vt 0.431388 0.187771
vt 0.562074 0.318457
vt 0.270593 0.318457
vt 0.221906 0.623309
vt 0.547302 0.952199
vt 0.559901 0.964563
vt 0.559901 0.614616
vt 0.547302 0.626981
vn -0.2848 0.9586 0.0000
vn 0.0000 0.0000 1.0000
vn -1.0000 0.0000 0.0000
vn 0.0000 -1.0000 0.0000
vn 1.0000 0.0000 0.0000
vn 0.0000 0.0000 -1.0000
vn 0.2848 0.9586 0.0000
vn 0.0000 0.9586 -0.2848
vn 0.0000 0.9586 0.2848
vn 0.0000 1.0000 0.0000
usemtl Material
s off
f 7/1/1 12/2/1 5/3/1
f 3/4/2 8/5/2 4/6/2
f 7/7/3 6/8/3 8/5/3
f 2/9/4 8/5/4 6/8/4
f 1/10/5 4/6/5 2/9/5
f 5/11/6 2/9/6 6/8/6
f 12/12/6 15/13/6 11/14/6
f 1/15/7 9/16/7 3/17/7
f 5/3/8 11/18/8 1/15/8
f 3/17/9 10/19/9 7/1/9
f 16/20/4 18/21/4 20/22/4
f 11/14/5 13/23/5 9/24/5
f 10/25/3 16/26/3 12/12/3
f 9/24/2 14/27/2 10/25/2
f 20/28/6 23/29/6 19/30/6
f 13/31/4 18/21/4 14/32/4
f 15/33/4 20/22/4 19/34/4
f 15/33/4 17/35/4 13/31/4
f 24/36/10 21/37/10 23/29/10
f 19/30/5 21/37/5 17/38/5
f 18/39/3 24/36/3 20/28/3
f 17/38/2 22/40/2 18/39/2
f 7/1/1 10/19/1 12/2/1
f 3/4/2 7/7/2 8/5/2
f 7/7/3 5/11/3 6/8/3
f 2/9/4 4/6/4 8/5/4
f 1/10/5 3/4/5 4/6/5
f 5/11/6 1/10/6 2/9/6
f 12/12/6 16/26/6 15/13/6
f 1/15/7 11/18/7 9/16/7
f 5/3/8 12/2/8 11/18/8
f 3/17/9 9/16/9 10/19/9
f 16/20/4 14/32/4 18/21/4
f 11/14/5 15/13/5 13/23/5
f 10/25/3 14/27/3 16/26/3
f 9/24/2 13/23/2 14/27/2
f 20/28/6 24/36/6 23/29/6
f 13/31/4 17/35/4 18/21/4
f 15/33/4 16/20/4 20/22/4
f 15/33/4 19/34/4 17/35/4
f 24/36/10 22/40/10 21/37/10
f 19/30/5 23/29/5 21/37/5
f 18/39/3 22/40/3 24/36/3
f 17/38/2 21/37/2 22/40/2
