# Blender v2.82 (sub 7) OBJ File: ''
# www.blender.org
mtllib table.mtl
o Cube
v 0.700955 0.070215 -0.704674
v 0.700955 0.023937 -0.704674
v 0.700955 0.070215 -0.303003
v 0.700955 0.023937 -0.303003
v 0.299284 0.070215 -0.704674
v 0.299284 0.023937 -0.704674
v 0.299284 0.070215 -0.303003
v 0.299284 0.023937 -0.303003
v 0.538683 0.118426 -0.465275
v 0.461556 0.118426 -0.465275
v 0.538683 0.118426 -0.542402
v 0.461556 0.118426 -0.542402
v 0.538683 0.929162 -0.465275
v 0.461556 0.929162 -0.465275
v 0.538683 0.929162 -0.542402
v 0.461556 0.929162 -0.542402
v 0.873434 0.929162 -0.130524
v 0.126805 0.929162 -0.130524
v 0.873434 0.929162 -0.877153
v 0.126805 0.929162 -0.877153
v 0.873434 0.986061 -0.130524
v 0.126805 0.986061 -0.130524
v 0.873434 0.986061 -0.877153
v 0.126805 0.986061 -0.877153
vt 0.625000 0.000000
vt 0.625000 0.250000
vt 0.625000 0.250000
vt 0.625000 0.750000
vt 0.375000 1.000000
vt 0.375000 0.750000
vt 0.375000 0.250000
vt 0.375000 0.000000
vt 0.375000 0.500000
vt 0.125000 0.750000
vt 0.125000 0.500000
vt 0.625000 0.500000
vt 0.625000 0.500000
vt 0.625000 0.500000
vt 0.625000 0.750000
vt 0.625000 1.000000
vt 0.625000 1.000000
vt 0.625000 0.250000
vt 0.625000 0.000000
vt 0.625000 0.250000
vt 0.625000 0.750000
vt 0.625000 0.000000
vt 0.625000 1.000000
vt 0.625000 0.500000
vt 0.625000 0.500000
vt 0.625000 1.000000
vt 0.625000 0.750000
vt 0.875000 0.500000
vt 0.625000 0.750000
vt 0.625000 0.250000
vt 0.625000 1.000000
vt 0.625000 0.000000
vt 0.875000 0.750000
vt 0.625000 0.000000
vn -0.2848 0.9586 0.0000
vn 0.0000 0.0000 1.0000
vn -1.0000 0.0000 0.0000
vn 0.0000 -1.0000 0.0000
vn 1.0000 0.0000 0.0000
vn 0.0000 0.0000 -1.0000
vn 0.2848 0.9586 0.0000
vn 0.0000 0.9586 -0.2848
vn 0.0000 0.9586 0.2848
vn 0.0000 1.0000 0.0000
usemtl Material
s off
f 7/1/1 12/2/1 5/3/1
f 3/4/2 8/5/2 4/6/2
f 7/1/3 6/7/3 8/8/3
f 2/9/4 8/10/4 6/11/4
f 1/12/5 4/6/5 2/9/5
f 5/3/6 2/9/6 6/7/6
f 12/2/6 15/13/6 11/14/6
f 1/12/7 9/15/7 3/4/7
f 5/3/8 11/14/8 1/12/8
f 3/4/9 10/16/9 7/17/9
f 16/18/4 18/19/4 20/20/4
f 11/14/5 13/21/5 9/15/5
f 10/22/3 16/18/3 12/2/3
f 9/15/2 14/23/2 10/16/2
f 20/20/6 23/24/6 19/25/6
f 13/21/4 18/26/4 14/23/4
f 15/13/4 20/20/4 19/25/4
f 15/13/4 17/27/4 13/21/4
f 24/28/10 21/29/10 23/24/10
f 19/25/5 21/29/5 17/27/5
f 18/19/3 24/30/3 20/20/3
f 17/27/2 22/31/2 18/26/2
f 7/1/1 10/22/1 12/2/1
f 3/4/2 7/17/2 8/5/2
f 7/1/3 5/3/3 6/7/3
f 2/9/4 4/6/4 8/10/4
f 1/12/5 3/4/5 4/6/5
f 5/3/6 1/12/6 2/9/6
f 12/2/6 16/18/6 15/13/6
f 1/12/7 11/14/7 9/15/7
f 5/3/8 12/2/8 11/14/8
f 3/4/9 9/15/9 10/16/9
f 16/18/4 14/32/4 18/19/4
f 11/14/5 15/13/5 13/21/5
f 10/22/3 14/32/3 16/18/3
f 9/15/2 13/21/2 14/23/2
f 20/20/6 24/30/6 23/24/6
f 13/21/4 17/27/4 18/26/4
f 15/13/4 16/18/4 20/20/4
f 15/13/4 19/25/4 17/27/4
f 24/28/10 22/33/10 21/29/10
f 19/25/5 23/24/5 21/29/5
f 18/19/3 22/34/3 24/30/3
f 17/27/2 21/29/2 22/31/2
