# Blender v2.82 (sub 7) OBJ File: 'wardrobe.blend'
# www.blender.org
mtllib wardrobe.mtl
o Cube
v 0.012501 -0.002852 -0.034729
v 0.012501 -0.002852 -0.978993
v 0.012501 0.998699 -0.978993
v 0.012501 0.998699 -0.034729
v 0.012501 0.497923 -0.034729
v 0.012501 0.497923 -0.978993
v 0.956766 -0.002852 -0.506861
v 0.012501 0.998699 -0.506861
v 0.956766 0.998699 -0.506861
v 0.012501 -0.002852 -0.506861
v 0.012501 0.497923 -0.506861
v 0.896960 0.056523 -0.506861
v 0.896959 0.520205 -0.881001
v 0.896959 0.056523 -0.923015
v 0.896959 0.497923 -0.923015
v 0.896959 0.939324 -0.923015
v 0.896960 0.497923 -0.090708
v 0.896960 0.056523 -0.090708
v 0.896960 0.939324 -0.506861
v 0.896960 0.939324 -0.090708
v 0.896960 0.497923 -0.506861
v 0.896959 0.917043 -0.881001
v 0.896960 0.917043 -0.506861
v 0.896960 0.917043 -0.132722
v 0.896960 0.520205 -0.132722
v 0.896960 0.520205 -0.506861
v 0.932416 0.520205 -0.881001
v 0.932416 0.917043 -0.881001
v 0.932416 0.917043 -0.506861
v 0.932416 0.917043 -0.132722
v 0.932416 0.520205 -0.132722
v 0.932416 0.520205 -0.506861
v 0.932416 0.757692 -0.356625
v 0.932416 0.757692 -0.282958
v 0.932416 0.679556 -0.282958
v 0.932416 0.679556 -0.356625
v 0.954913 0.757692 -0.356625
v 0.954913 0.757692 -0.282958
v 0.954913 0.679556 -0.282958
v 0.954913 0.679556 -0.356625
v 0.932416 0.677400 -0.732796
v 0.932416 0.759847 -0.732796
v 0.932416 0.759847 -0.655066
v 0.932416 0.677400 -0.655066
v 0.959323 0.677400 -0.732796
v 0.959323 0.759847 -0.732796
v 0.959323 0.759847 -0.655066
v 0.959323 0.677400 -0.655066
v 0.896960 0.074659 -0.506861
v 0.896959 0.074659 -0.888816
v 0.896960 0.479786 -0.124907
v 0.896960 0.074659 -0.124907
v 0.896959 0.479786 -0.888816
v 0.896960 0.479786 -0.506861
v 0.947368 0.074659 -0.506861
v 0.947368 0.074659 -0.888816
v 0.947368 0.479786 -0.124907
v 0.947368 0.074659 -0.124907
v 0.947368 0.479786 -0.888816
v 0.947368 0.479786 -0.506861
v 0.947368 0.307152 -0.450427
v 0.947368 0.247294 -0.450427
v 0.947368 0.247294 -0.563295
v 0.947368 0.307152 -0.563295
v 0.971419 0.307152 -0.450427
v 0.971419 0.247294 -0.450427
v 0.971419 0.247294 -0.563295
v 0.971419 0.307152 -0.563295
v 0.944969 0.056523 -0.506861
v 0.956766 0.044011 -0.506861
v 0.956766 0.044011 -0.934811
v 0.944969 0.056523 -0.923015
v 0.944969 0.497923 -0.923015
v 0.956766 0.497923 -0.934811
v 0.956766 0.951836 -0.934811
v 0.944969 0.939324 -0.923015
v 0.944969 0.497923 -0.090708
v 0.956766 0.497923 -0.078912
v 0.956766 0.044011 -0.078912
v 0.944969 0.056523 -0.090708
v 0.944969 0.939324 -0.506861
v 0.956766 0.951836 -0.506861
v 0.956766 0.951836 -0.078912
v 0.944969 0.939324 -0.090708
v 0.956766 0.003290 -0.040520
v 0.950975 -0.002852 -0.034729
v 0.956766 -0.002852 -0.040520
v 0.956766 0.992557 -0.973203
v 0.950975 0.998699 -0.978994
v 0.956766 0.998699 -0.973203
v 0.950975 -0.002852 -0.978994
v 0.956766 0.003290 -0.973203
v 0.956766 -0.002852 -0.973203
v 0.950975 0.998699 -0.034729
v 0.956766 0.992557 -0.040520
v 0.956766 0.998699 -0.040520
v 0.956766 0.497923 -0.973203
v 0.950975 0.497923 -0.978994
v 0.956766 0.497923 -0.040520
v 0.950975 0.497923 -0.034729
vt 0.834666 0.583667
vt 0.834666 0.583667
vt 0.834666 0.583667
vt 0.834666 0.583667
vt 0.834666 0.583667
vt 0.834666 0.583667
vt 0.834666 0.583667
vt 0.834666 0.583667
vt 0.834666 0.583667
vt 0.834666 0.583667
vt 0.834666 0.583667
vt 0.834666 0.583667
vt 0.834666 0.583667
vt 0.834666 0.583667
vt 0.834666 0.583667
vt 0.834666 0.583667
vt 0.834666 0.583667
vt 0.834666 0.583667
vt 0.834666 0.583667
vt 0.834666 0.583667
vt 0.834666 0.583667
vt 0.834666 0.583667
vt 0.834666 0.583667
vt 0.834666 0.583667
vt 0.834666 0.583667
vt 0.834666 0.583667
vt 0.834666 0.583667
vt 0.834666 0.583667
vt 0.834666 0.583667
vt 0.834666 0.583667
vt 0.834666 0.583667
vt 0.834666 0.583667
vt 0.834666 0.583667
vt 0.834666 0.583667
vt 0.834666 0.583667
vt 0.834666 0.583667
vt 0.834666 0.583667
vt 0.834666 0.583667
vt 0.834666 0.583667
vt 0.834666 0.583667
vt 0.834666 0.583667
vt 0.834666 0.583667
vt 0.834666 0.583667
vt 0.834666 0.583667
vt 0.807598 0.440941
vt 0.807598 0.440941
vt 0.807598 0.440941
vt 0.807598 0.440941
vt 0.807598 0.440941
vt 0.807598 0.440941
vt 0.807598 0.440941
vt 0.807598 0.440941
vt 0.807598 0.440941
vt 0.807598 0.440941
vt 0.807598 0.440941
vt 0.834666 0.583667
vt 0.834666 0.583667
vt 0.834666 0.583667
vt 0.683364 0.555368
vt 0.683364 0.555368
vt 0.683364 0.555368
vt 0.683364 0.555368
vt 0.683364 0.555368
vt 0.807598 0.440941
vt 0.807598 0.440941
vt 0.807598 0.440941
vt 0.807598 0.440941
vt 0.807598 0.440941
vt 0.807598 0.440941
vt 0.683364 0.555368
vt 0.683364 0.555368
vt 0.726392 0.598431
vt 0.726392 0.598431
vt 0.726392 0.598431
vt 0.834666 0.583667
vt 0.834666 0.583667
vt 0.834666 0.583667
vt 0.834666 0.583667
vt 0.834666 0.583667
vt 0.683364 0.555368
vt 0.683364 0.555368
vt 0.683364 0.555368
vt 0.842049 0.960166
vt 0.842049 0.960166
vt 0.842049 0.960166
vt 0.726392 0.598431
vt 0.726392 0.598431
vt 0.726392 0.598431
vt 0.726392 0.598431
vt 0.726392 0.598431
vt 0.726392 0.598431
vt 0.726392 0.598431
vt 0.842049 0.960166
vt 0.842049 0.960166
vt 0.842049 0.960166
vt 0.842049 0.960166
vt 0.842049 0.960166
vt 0.842049 0.960166
vt 0.842049 0.960166
vt 0.842049 0.960166
vt 0.726392 0.598431
vt 0.726392 0.598431
vt 0.726392 0.598431
vt 0.842049 0.960166
vt 0.842049 0.960166
vt 0.842049 0.960166
vt 0.842049 0.960166
vt 0.842049 0.960166
vt 0.683364 0.555368
vt 0.683364 0.555368
vt 0.683364 0.555368
vt 0.683364 0.555368
vt 0.683364 0.555368
vt 0.683364 0.555368
vt 0.807598 0.440941
vt 0.807598 0.440941
vt 0.807598 0.440941
vt 0.807598 0.440941
vt 0.689552 0.556598
vt 0.689552 0.556598
vt 0.689552 0.556598
vt 0.683364 0.555368
vt 0.834666 0.583667
vt 0.834666 0.583667
vt 0.834666 0.583667
vt 0.834666 0.583667
vt 0.834666 0.583667
vt 0.683364 0.555368
vt 0.683364 0.555368
vt 0.805209 0.918333
vt 0.805209 0.918333
vt 0.805209 0.918333
vt 0.689552 0.556598
vt 0.689552 0.556598
vt 0.689552 0.556598
vt 0.683364 0.555368
vt 0.683364 0.555368
vt 0.689552 0.556598
vt 0.805209 0.918333
vt 0.805209 0.918333
vt 0.805209 0.918333
vt 0.805209 0.918333
vt 0.842049 0.960166
vt 0.842049 0.960166
vt 0.842049 0.960166
vt 0.834666 0.583667
vt 0.834666 0.583667
vt 0.834666 0.583667
vt 0.834666 0.583667
vt 0.683364 0.555368
vt 0.834666 0.583667
vt 0.683364 0.555368
vt 0.726392 0.598431
vt 0.683364 0.555368
vt 0.834666 0.583667
vt 0.689552 0.556598
vt 0.805209 0.918333
vt 0.842049 0.960166
vn 1.0000 0.0000 -0.0000
vn 0.0000 0.0000 -1.0000
vn -1.0000 0.0000 0.0000
vn 0.0000 -1.0000 0.0000
vn 0.0000 0.0000 1.0000
vn 0.0000 1.0000 0.0000
vn 0.7276 0.6860 -0.0000
vn 0.7071 0.0000 0.7071
vn 0.7071 0.0000 -0.7071
vn 0.7276 -0.6860 -0.0000
usemtl Material
s off
f 9/1/1 82/2/1 75/3/1
f 77/4/2 20/5/2 84/6/2
f 6/7/2 91/8/2 2/9/2
f 8/10/3 6/7/3 11/11/3
f 3/12/2 98/13/2 6/7/2
f 7/14/1 70/15/1 79/16/1
f 11/11/3 2/9/3 10/17/3
f 81/18/4 16/19/4 76/20/4
f 97/21/1 71/22/1 92/23/1
f 80/24/2 17/25/2 77/4/2
f 5/26/3 10/17/3 1/27/3
f 99/28/1 83/29/1 95/30/1
f 4/31/3 11/11/3 5/26/3
f 100/32/5 1/27/5 86/33/5
f 84/6/4 19/34/4 81/18/4
f 9/1/6 90/35/6 89/36/6
f 94/37/5 5/26/5 100/32/5
f 10/17/4 2/9/4 91/8/4
f 76/20/5 15/38/5 73/39/5
f 97/21/1 75/3/1 74/40/1
f 69/41/6 18/42/6 80/24/6
f 73/39/5 14/43/5 72/44/5
f 17/45/1 24/46/1 20/47/1
f 14/48/1 53/49/1 50/50/1
f 21/51/1 51/52/1 54/53/1
f 21/51/1 13/54/1 26/55/1
f 93/56/1 92/23/1 71/22/1
f 94/37/6 9/1/6 8/10/6
f 96/57/1 95/30/1 83/29/1
f 99/28/1 79/16/1 78/58/1
f 26/59/4 31/60/4 25/61/4
f 13/62/4 32/63/4 26/59/4
f 19/64/1 24/46/1 23/65/1
f 16/66/1 13/54/1 15/67/1
f 19/64/1 22/68/1 16/66/1
f 21/51/1 25/69/1 17/45/1
f 31/60/1 34/70/1 30/71/1
f 28/72/1 43/73/1 42/74/1
f 24/75/6 29/76/6 23/77/6
f 23/77/6 28/78/6 22/79/6
f 25/61/5 30/71/5 24/80/5
f 22/81/2 27/82/2 13/62/2
f 33/83/2 40/84/2 36/85/2
f 32/86/1 35/87/1 31/88/1
f 29/89/1 34/90/1 33/91/1
f 29/89/1 36/92/1 32/86/1
f 37/93/1 39/94/1 40/84/1
f 35/95/5 38/96/5 34/97/5
f 36/85/4 39/94/4 35/95/4
f 34/97/6 37/93/6 33/83/6
f 44/98/5 47/99/5 43/100/5
f 28/72/1 41/101/1 27/102/1
f 27/102/1 44/103/1 32/86/1
f 32/86/1 43/73/1 29/89/1
f 46/104/1 48/105/1 45/106/1
f 43/100/6 46/104/6 42/107/6
f 41/108/4 48/105/4 44/98/4
f 42/107/2 45/106/2 41/108/2
f 53/109/2 56/110/2 50/111/2
f 49/112/4 58/113/4 52/114/4
f 18/115/1 51/52/1 17/45/1
f 12/116/1 50/50/1 49/117/1
f 21/51/1 53/49/1 15/67/1
f 12/116/1 52/118/1 18/115/1
f 59/119/1 63/120/1 56/121/1
f 50/111/4 55/122/4 49/112/4
f 54/123/6 59/124/6 53/125/6
f 51/126/6 60/127/6 54/123/6
f 52/114/5 57/128/5 51/129/5
f 61/130/6 68/131/6 64/132/6
f 57/133/1 62/134/1 61/135/1
f 58/113/1 63/136/1 62/137/1
f 57/133/1 64/138/1 59/119/1
f 66/139/1 68/131/1 65/140/1
f 62/141/5 65/140/5 61/130/5
f 63/142/4 66/139/4 62/141/4
f 64/143/2 67/144/2 63/145/2
f 70/15/7 72/44/7 69/41/7
f 74/40/8 76/20/8 73/39/8
f 78/58/9 80/24/9 77/4/9
f 82/2/10 84/6/10 81/18/10
f 74/40/8 72/44/8 71/22/8
f 78/58/9 84/6/9 83/29/9
f 70/15/7 80/24/7 79/16/7
f 82/2/10 76/20/10 75/3/10
f 72/44/6 12/146/6 69/41/6
f 85/147/8 86/33/8 87/148/8
f 88/149/9 89/36/9 90/35/9
f 91/8/9 92/23/9 93/56/9
f 94/37/8 95/30/8 96/57/8
f 98/13/9 88/149/9 97/21/9
f 100/32/8 85/147/8 99/28/8
f 98/13/9 92/23/9 91/8/9
f 100/32/8 95/30/8 94/37/8
f 86/33/4 10/17/4 7/14/4
f 75/3/1 88/149/1 90/35/1
f 90/35/1 9/1/1 75/3/1
f 77/4/2 17/25/2 20/5/2
f 6/7/2 98/13/2 91/8/2
f 8/10/3 3/12/3 6/7/3
f 3/12/2 89/36/2 98/13/2
f 79/16/1 85/147/1 87/148/1
f 87/148/1 7/14/1 79/16/1
f 11/11/3 6/7/3 2/9/3
f 81/18/4 19/34/4 16/19/4
f 97/21/1 74/40/1 71/22/1
f 80/24/2 18/42/2 17/25/2
f 5/26/3 11/11/3 10/17/3
f 99/28/1 78/58/1 83/29/1
f 4/31/3 8/10/3 11/11/3
f 100/32/5 5/26/5 1/27/5
f 84/6/4 20/5/4 19/34/4
f 3/12/6 8/10/6 89/36/6
f 8/10/6 9/1/6 89/36/6
f 94/37/5 4/31/5 5/26/5
f 93/56/4 7/14/4 91/8/4
f 7/14/4 10/17/4 91/8/4
f 76/20/5 16/19/5 15/38/5
f 97/21/1 88/149/1 75/3/1
f 69/41/6 12/146/6 18/42/6
f 73/39/5 15/38/5 14/43/5
f 17/45/1 25/69/1 24/46/1
f 14/48/1 15/67/1 53/49/1
f 21/51/1 17/45/1 51/52/1
f 21/51/1 15/67/1 13/54/1
f 70/15/1 7/14/1 71/22/1
f 7/14/1 93/56/1 71/22/1
f 8/10/6 4/31/6 94/37/6
f 94/37/6 96/57/6 9/1/6
f 82/2/1 9/1/1 83/29/1
f 9/1/1 96/57/1 83/29/1
f 99/28/1 85/147/1 79/16/1
f 26/59/4 32/63/4 31/60/4
f 13/62/4 27/82/4 32/63/4
f 19/64/1 20/47/1 24/46/1
f 16/66/1 22/68/1 13/54/1
f 19/64/1 23/65/1 22/68/1
f 21/51/1 26/55/1 25/69/1
f 31/60/1 35/150/1 34/70/1
f 28/72/1 29/89/1 43/73/1
f 24/75/6 30/151/6 29/76/6
f 23/77/6 29/76/6 28/78/6
f 25/61/5 31/60/5 30/71/5
f 22/81/2 28/152/2 27/82/2
f 33/83/2 37/93/2 40/84/2
f 32/86/1 36/92/1 35/87/1
f 29/89/1 30/153/1 34/90/1
f 29/89/1 33/91/1 36/92/1
f 37/93/1 38/96/1 39/94/1
f 35/95/5 39/94/5 38/96/5
f 36/85/4 40/84/4 39/94/4
f 34/97/6 38/96/6 37/93/6
f 44/98/5 48/105/5 47/99/5
f 28/72/1 42/74/1 41/101/1
f 27/102/1 41/101/1 44/103/1
f 32/86/1 44/103/1 43/73/1
f 46/104/1 47/99/1 48/105/1
f 43/100/6 47/99/6 46/104/6
f 41/108/4 45/106/4 48/105/4
f 42/107/2 46/104/2 45/106/2
f 53/109/2 59/154/2 56/110/2
f 49/112/4 55/122/4 58/113/4
f 18/115/1 52/118/1 51/52/1
f 12/116/1 14/48/1 50/50/1
f 21/51/1 54/53/1 53/49/1
f 12/116/1 49/117/1 52/118/1
f 59/119/1 64/138/1 63/120/1
f 50/111/4 56/110/4 55/122/4
f 54/123/6 60/127/6 59/124/6
f 51/126/6 57/155/6 60/127/6
f 52/114/5 58/113/5 57/128/5
f 61/130/6 65/140/6 68/131/6
f 57/133/1 58/156/1 62/134/1
f 58/113/1 56/110/1 63/136/1
f 57/133/1 61/135/1 64/138/1
f 66/139/1 67/157/1 68/131/1
f 62/141/5 66/139/5 65/140/5
f 63/142/4 67/157/4 66/139/4
f 64/143/2 68/158/2 67/144/2
f 70/15/7 71/22/7 72/44/7
f 74/40/8 75/3/8 76/20/8
f 78/58/9 79/16/9 80/24/9
f 82/2/10 83/29/10 84/6/10
f 74/40/8 73/39/8 72/44/8
f 78/58/9 77/4/9 84/6/9
f 70/15/7 69/41/7 80/24/7
f 82/2/10 81/18/10 76/20/10
f 72/44/6 14/43/6 12/146/6
f 98/13/9 89/36/9 88/149/9
f 100/32/8 86/33/8 85/147/8
f 98/13/9 97/21/9 92/23/9
f 100/32/8 99/28/8 95/30/8
f 7/14/4 87/148/4 86/33/4
f 86/33/4 1/27/4 10/17/4
